%TF.GenerationSoftware,KiCad,Pcbnew,10.0.5*%
%TF.CreationDate,2026-10-05T19:40:19+05:30*%
%TF.ProjectId,Full WaveRectfier,46756c6c-2057-4617-9665-526563746669,rev?*%
%TF.SameCoordinates,Original*%
%TF.FileFunction,Copper,L1,Top*%
%TF.FilePolarity,Positive*%
%FSLAX46Y46*%
G04 Gerber Fmt 4.6, Leading zero omitted, Abs format (unit mm)*
G04 Created by KiCad (PCBNEW 10.0.5) date 2026-10-05 19:40:19*
%MOMM*%
%LPD*%
G01*
G04 APERTURE LIST*
G04 Aperture macros list*
%AMRoundRect*
0 Rectangle with rounded corners*
0 $1 Rounding radius*
0 $2 $3 $4 $5 $6 $7 $8 $9 X,Y pos of 4 corners*
0 Add a 4 corners polygon primitive as box body*
4,1,4,$2,$3,$4,$5,$6,$7,$8,$9,$2,$3,0*
0 Add four circle primitives for the rounded corners*
1,1,$1+$1,$2,$3*
1,1,$1+$1,$4,$5*
1,1,$1+$1,$6,$7*
1,1,$1+$1,$8,$9*
0 Add four rect primitives between the rounded corners*
20,1,$1+$1,$2,$3,$4,$5,0*
20,1,$1+$1,$4,$5,$6,$7,0*
20,1,$1+$1,$6,$7,$8,$9,0*
20,1,$1+$1,$8,$9,$2,$3,0*%
G04 Aperture macros list end*
%TA.AperFunction,ComponentPad*%
%ADD10C,2.400000*%
%TD*%
%TA.AperFunction,ComponentPad*%
%ADD11RoundRect,0.250000X1.050000X-1.050000X1.050000X1.050000X-1.050000X1.050000X-1.050000X-1.050000X0*%
%TD*%
%TA.AperFunction,ComponentPad*%
%ADD12C,2.600000*%
%TD*%
%TA.AperFunction,ComponentPad*%
%ADD13RoundRect,0.249999X-0.850001X-0.850001X0.850001X-0.850001X0.850001X0.850001X-0.850001X0.850001X0*%
%TD*%
%TA.AperFunction,ComponentPad*%
%ADD14C,2.200000*%
%TD*%
%TA.AperFunction,ComponentPad*%
%ADD15R,1.800000X1.800000*%
%TD*%
%TA.AperFunction,ComponentPad*%
%ADD16C,1.800000*%
%TD*%
%TA.AperFunction,ComponentPad*%
%ADD17C,1.600000*%
%TD*%
%TA.AperFunction,ComponentPad*%
%ADD18R,2.200000X2.200000*%
%TD*%
%TA.AperFunction,ComponentPad*%
%ADD19RoundRect,0.250000X-1.050000X1.050000X-1.050000X-1.050000X1.050000X-1.050000X1.050000X1.050000X0*%
%TD*%
%TA.AperFunction,ComponentPad*%
%ADD20R,1.905000X2.000000*%
%TD*%
%TA.AperFunction,ComponentPad*%
%ADD21O,1.905000X2.000000*%
%TD*%
%TA.AperFunction,Conductor*%
%ADD22C,0.500000*%
%TD*%
%TA.AperFunction,Conductor*%
%ADD23C,1.000000*%
%TD*%
G04 APERTURE END LIST*
D10*
%TO.P,R1,1*%
%TO.N,Net-(J2-Pin_1)*%
X169800000Y-109820000D03*
%TO.P,R1,2*%
%TO.N,Net-(D3-A)*%
X169800000Y-94580000D03*
%TD*%
D11*
%TO.P,J2,1,Pin_1_1*%
%TO.N,Net-(J2-Pin_1)*%
X183372500Y-110300000D03*
D12*
%TO.P,J2,2,Pin_2_2*%
%TO.N,GND*%
X183372500Y-105300000D03*
%TD*%
D13*
%TO.P,D2,1,K_1*%
%TO.N,Net-(D1-K)*%
X146820000Y-116600000D03*
D14*
%TO.P,D2,2,A_2*%
%TO.N,Net-(D2-A)*%
X156980000Y-116600000D03*
%TD*%
D15*
%TO.P,D3,1,K_1*%
%TO.N,GND*%
X170300000Y-116600000D03*
D16*
%TO.P,D3,2,A_2*%
%TO.N,Net-(D3-A)*%
X172840000Y-116600000D03*
%TD*%
D13*
%TO.P,D1,1,K_1*%
%TO.N,Net-(D1-K)*%
X146820000Y-102500000D03*
D14*
%TO.P,D1,2,A_2*%
%TO.N,Net-(D1-A)*%
X156980000Y-102500000D03*
%TD*%
D17*
%TO.P,C2,1*%
%TO.N,Net-(J2-Pin_1)*%
X161800000Y-115800000D03*
%TO.P,C2,2*%
%TO.N,GND*%
X163800000Y-115800000D03*
%TD*%
%TO.P,C1,1*%
%TO.N,Net-(D1-K)*%
X162000000Y-106100000D03*
%TO.P,C1,2*%
%TO.N,GND*%
X164000000Y-106100000D03*
%TD*%
D18*
%TO.P,T1,1,AA_1*%
%TO.N,Net-(J1-Pin_2)*%
X127512500Y-103362500D03*
D14*
%TO.P,T1,2,AB_2*%
%TO.N,Net-(J1-Pin_1)*%
X127512500Y-116062500D03*
%TO.P,T1,3,SA_3*%
%TO.N,Net-(D2-A)*%
X137512500Y-116062500D03*
%TO.P,T1,4,SB_4*%
%TO.N,Net-(D1-A)*%
X137512500Y-103362500D03*
%TD*%
D19*
%TO.P,J1,1,Pin_1_1*%
%TO.N,Net-(J1-Pin_1)*%
X113027500Y-107100000D03*
D12*
%TO.P,J1,2,Pin_2_2*%
%TO.N,Net-(J1-Pin_2)*%
X113027500Y-112100000D03*
%TD*%
D20*
%TO.P,U1,1,IN_1*%
%TO.N,Net-(D1-K)*%
X149360000Y-110550000D03*
D21*
%TO.P,U1,2,GND_2*%
%TO.N,GND*%
X151900000Y-110550000D03*
%TO.P,U1,3,OUT_3*%
%TO.N,Net-(J2-Pin_1)*%
X154440000Y-110550000D03*
%TD*%
%TO.N,GND*%
D22*
X169500000Y-115800000D02*
X170300000Y-116600000D01*
X163800000Y-115800000D02*
X169500000Y-115800000D01*
%TO.N,Net-(D3-A)*%
X175500000Y-100280000D02*
X169800000Y-94580000D01*
X175500000Y-113940000D02*
X175500000Y-100280000D01*
X172840000Y-116600000D02*
X175500000Y-113940000D01*
%TO.N,GND*%
X163800000Y-115800000D02*
X163800000Y-106300000D01*
X163800000Y-106300000D02*
X164000000Y-106100000D01*
X153850000Y-108600000D02*
X161500000Y-108600000D01*
X161500000Y-108600000D02*
X164000000Y-106100000D01*
X151900000Y-110550000D02*
X153850000Y-108600000D01*
%TO.N,Net-(D1-K)*%
X153810000Y-106100000D02*
X162000000Y-106100000D01*
X149360000Y-110550000D02*
X153810000Y-106100000D01*
%TO.N,Net-(J2-Pin_1)*%
X156550000Y-110550000D02*
X161800000Y-115800000D01*
X154440000Y-110550000D02*
X156550000Y-110550000D01*
%TO.N,Net-(D2-A)*%
X154200000Y-119380000D02*
X156980000Y-116600000D01*
X154200000Y-119800000D02*
X154200000Y-119380000D01*
X141250000Y-119800000D02*
X154200000Y-119800000D01*
X137512500Y-116062500D02*
X141250000Y-119800000D01*
%TO.N,Net-(D1-K)*%
X146820000Y-113090000D02*
X149360000Y-110550000D01*
X146820000Y-116600000D02*
X146820000Y-113090000D01*
X146820000Y-108010000D02*
X149360000Y-110550000D01*
X146820000Y-102500000D02*
X146820000Y-108010000D01*
%TO.N,Net-(D1-A)*%
X155200000Y-98500000D02*
X156980000Y-100280000D01*
X140200000Y-98500000D02*
X155200000Y-98500000D01*
X137512500Y-101187500D02*
X140200000Y-98500000D01*
X156980000Y-100280000D02*
X156980000Y-102500000D01*
X137512500Y-103362500D02*
X137512500Y-101187500D01*
%TO.N,Net-(J1-Pin_2)*%
D23*
X111100000Y-102100000D02*
X122200000Y-102100000D01*
X122200000Y-102100000D02*
X123462500Y-103362500D01*
X123462500Y-103362500D02*
X127512500Y-103362500D01*
X110000000Y-109072500D02*
X110000000Y-103200000D01*
X113027500Y-112100000D02*
X110000000Y-109072500D01*
X110000000Y-103200000D02*
X111100000Y-102100000D01*
%TO.N,Net-(J1-Pin_1)*%
X113027500Y-107827500D02*
X121262500Y-116062500D01*
X121262500Y-116062500D02*
X127512500Y-116062500D01*
X113027500Y-107100000D02*
X113027500Y-107827500D01*
%TD*%
%TA.AperFunction,Conductor*%
%TO.N,GND*%
G36*
X169369328Y-92720185D02*
G01*
X169415083Y-92772989D01*
X169425027Y-92842147D01*
X169396002Y-92905703D01*
X169337224Y-92943477D01*
X169334413Y-92944266D01*
X169252219Y-92966290D01*
X169252209Y-92966293D01*
X169046277Y-93051593D01*
X169046273Y-93051595D01*
X168853226Y-93163052D01*
X168853217Y-93163058D01*
X168676377Y-93298751D01*
X168676370Y-93298757D01*
X168518757Y-93456370D01*
X168518751Y-93456377D01*
X168383058Y-93633217D01*
X168383052Y-93633226D01*
X168271595Y-93826273D01*
X168271593Y-93826277D01*
X168186293Y-94032209D01*
X168186290Y-94032219D01*
X168128597Y-94247534D01*
X168128594Y-94247547D01*
X168099501Y-94468533D01*
X168099500Y-94468549D01*
X168099500Y-94691450D01*
X168099501Y-94691466D01*
X168128594Y-94912452D01*
X168128595Y-94912457D01*
X168128596Y-94912463D01*
X168186290Y-95127780D01*
X168186293Y-95127790D01*
X168208748Y-95182000D01*
X168271595Y-95333726D01*
X168383052Y-95526774D01*
X168383057Y-95526780D01*
X168383058Y-95526782D01*
X168518751Y-95703622D01*
X168518757Y-95703629D01*
X168676370Y-95861242D01*
X168676376Y-95861247D01*
X168853226Y-95996948D01*
X169046274Y-96108405D01*
X169176140Y-96162197D01*
X169248993Y-96192374D01*
X169252219Y-96193710D01*
X169467537Y-96251404D01*
X169688543Y-96280500D01*
X169688550Y-96280500D01*
X169911450Y-96280500D01*
X169911457Y-96280500D01*
X170132463Y-96251404D01*
X170282230Y-96211274D01*
X170352075Y-96212937D01*
X170402000Y-96243368D01*
X174713181Y-100554548D01*
X174746666Y-100615871D01*
X174749500Y-100642229D01*
X174749500Y-113577769D01*
X174729815Y-113644808D01*
X174713181Y-113665450D01*
X173192508Y-115186122D01*
X173131185Y-115219607D01*
X173085429Y-115220914D01*
X172950227Y-115199500D01*
X172950222Y-115199500D01*
X172729778Y-115199500D01*
X172657201Y-115210995D01*
X172512047Y-115233985D01*
X172302396Y-115302103D01*
X172302393Y-115302104D01*
X172105974Y-115402187D01*
X171927641Y-115531752D01*
X171927636Y-115531756D01*
X171877075Y-115582317D01*
X171815752Y-115615801D01*
X171746060Y-115610816D01*
X171690127Y-115568945D01*
X171673213Y-115537968D01*
X171643354Y-115457913D01*
X171643350Y-115457906D01*
X171557190Y-115342812D01*
X171557187Y-115342809D01*
X171442093Y-115256649D01*
X171442086Y-115256645D01*
X171307379Y-115206403D01*
X171307372Y-115206401D01*
X171247844Y-115200000D01*
X170550000Y-115200000D01*
X170550000Y-116224722D01*
X170473694Y-116180667D01*
X170359244Y-116150000D01*
X170240756Y-116150000D01*
X170126306Y-116180667D01*
X170050000Y-116224722D01*
X170050000Y-115200000D01*
X169352155Y-115200000D01*
X169292627Y-115206401D01*
X169292620Y-115206403D01*
X169157913Y-115256645D01*
X169157906Y-115256649D01*
X169042812Y-115342809D01*
X169042809Y-115342812D01*
X168956649Y-115457906D01*
X168956645Y-115457913D01*
X168906403Y-115592620D01*
X168906401Y-115592627D01*
X168900000Y-115652155D01*
X168900000Y-116350000D01*
X169924722Y-116350000D01*
X169880667Y-116426306D01*
X169850000Y-116540756D01*
X169850000Y-116659244D01*
X169880667Y-116773694D01*
X169924722Y-116850000D01*
X168900000Y-116850000D01*
X168900000Y-117547844D01*
X168906401Y-117607372D01*
X168906403Y-117607379D01*
X168956645Y-117742086D01*
X168956649Y-117742093D01*
X169042809Y-117857187D01*
X169042812Y-117857190D01*
X169157906Y-117943350D01*
X169157913Y-117943354D01*
X169292620Y-117993596D01*
X169292627Y-117993598D01*
X169352155Y-117999999D01*
X169352172Y-118000000D01*
X170050000Y-118000000D01*
X170050000Y-116975277D01*
X170126306Y-117019333D01*
X170240756Y-117050000D01*
X170359244Y-117050000D01*
X170473694Y-117019333D01*
X170550000Y-116975277D01*
X170550000Y-118000000D01*
X171247828Y-118000000D01*
X171247844Y-117999999D01*
X171307372Y-117993598D01*
X171307379Y-117993596D01*
X171442086Y-117943354D01*
X171442093Y-117943350D01*
X171557187Y-117857190D01*
X171557190Y-117857187D01*
X171643350Y-117742093D01*
X171643354Y-117742086D01*
X171673213Y-117662031D01*
X171715084Y-117606097D01*
X171780548Y-117581680D01*
X171848821Y-117596531D01*
X171877076Y-117617683D01*
X171927636Y-117668243D01*
X171927641Y-117668247D01*
X172066774Y-117769332D01*
X172105978Y-117797815D01*
X172222501Y-117857187D01*
X172302393Y-117897895D01*
X172302396Y-117897896D01*
X172407221Y-117931955D01*
X172512049Y-117966015D01*
X172729778Y-118000500D01*
X172729779Y-118000500D01*
X172950221Y-118000500D01*
X172950222Y-118000500D01*
X173167951Y-117966015D01*
X173377606Y-117897895D01*
X173574022Y-117797815D01*
X173752365Y-117668242D01*
X173908242Y-117512365D01*
X174037815Y-117334022D01*
X174137895Y-117137606D01*
X174206015Y-116927951D01*
X174240500Y-116710222D01*
X174240500Y-116489778D01*
X174219084Y-116354566D01*
X174228038Y-116285276D01*
X174253873Y-116247493D01*
X176082952Y-114418416D01*
X176132186Y-114344729D01*
X176165084Y-114295495D01*
X176221658Y-114158913D01*
X176250500Y-114013918D01*
X176250500Y-109199983D01*
X181572000Y-109199983D01*
X181572000Y-111400001D01*
X181572001Y-111400018D01*
X181582500Y-111502796D01*
X181582501Y-111502799D01*
X181637685Y-111669331D01*
X181637687Y-111669336D01*
X181672569Y-111725888D01*
X181729788Y-111818656D01*
X181853844Y-111942712D01*
X182003166Y-112034814D01*
X182169703Y-112089999D01*
X182272491Y-112100500D01*
X184472508Y-112100499D01*
X184575297Y-112089999D01*
X184741834Y-112034814D01*
X184891156Y-111942712D01*
X185015212Y-111818656D01*
X185107314Y-111669334D01*
X185162499Y-111502797D01*
X185173000Y-111400009D01*
X185172999Y-109199992D01*
X185162499Y-109097203D01*
X185107314Y-108930666D01*
X185015212Y-108781344D01*
X184891156Y-108657288D01*
X184741834Y-108565186D01*
X184575297Y-108510001D01*
X184575295Y-108510000D01*
X184472510Y-108499500D01*
X182272498Y-108499500D01*
X182272481Y-108499501D01*
X182169703Y-108510000D01*
X182169700Y-108510001D01*
X182003168Y-108565185D01*
X182003163Y-108565187D01*
X181853842Y-108657289D01*
X181729789Y-108781342D01*
X181637687Y-108930663D01*
X181637686Y-108930666D01*
X181582501Y-109097203D01*
X181582501Y-109097204D01*
X181582500Y-109097204D01*
X181572000Y-109199983D01*
X176250500Y-109199983D01*
X176250500Y-105182014D01*
X181572500Y-105182014D01*
X181572500Y-105417985D01*
X181603299Y-105651914D01*
X181664370Y-105879837D01*
X181754660Y-106097819D01*
X181754665Y-106097828D01*
X181872644Y-106302171D01*
X181872645Y-106302172D01*
X181935221Y-106383723D01*
X182771458Y-105547487D01*
X182796478Y-105607890D01*
X182867612Y-105714351D01*
X182958149Y-105804888D01*
X183064610Y-105876022D01*
X183125011Y-105901041D01*
X182288775Y-106737277D01*
X182370327Y-106799854D01*
X182370328Y-106799855D01*
X182574671Y-106917834D01*
X182574680Y-106917839D01*
X182792663Y-107008129D01*
X182792661Y-107008129D01*
X183020585Y-107069200D01*
X183254514Y-107099999D01*
X183254529Y-107100000D01*
X183490471Y-107100000D01*
X183490485Y-107099999D01*
X183724414Y-107069200D01*
X183952337Y-107008129D01*
X184170319Y-106917839D01*
X184170328Y-106917834D01*
X184374681Y-106799850D01*
X184456223Y-106737279D01*
X184456223Y-106737276D01*
X183619987Y-105901041D01*
X183680390Y-105876022D01*
X183786851Y-105804888D01*
X183877388Y-105714351D01*
X183948522Y-105607890D01*
X183973541Y-105547487D01*
X184809776Y-106383723D01*
X184809779Y-106383723D01*
X184872350Y-106302181D01*
X184990334Y-106097828D01*
X184990339Y-106097819D01*
X185080629Y-105879837D01*
X185141700Y-105651914D01*
X185172499Y-105417985D01*
X185172500Y-105417971D01*
X185172500Y-105182028D01*
X185172499Y-105182014D01*
X185141700Y-104948085D01*
X185080629Y-104720162D01*
X184990339Y-104502180D01*
X184990334Y-104502171D01*
X184872355Y-104297828D01*
X184872354Y-104297827D01*
X184809777Y-104216275D01*
X183973541Y-105052511D01*
X183948522Y-104992110D01*
X183877388Y-104885649D01*
X183786851Y-104795112D01*
X183680390Y-104723978D01*
X183619988Y-104698958D01*
X184456223Y-103862721D01*
X184374672Y-103800145D01*
X184374671Y-103800144D01*
X184170328Y-103682165D01*
X184170319Y-103682160D01*
X183952336Y-103591870D01*
X183952338Y-103591870D01*
X183724414Y-103530799D01*
X183490485Y-103500000D01*
X183254514Y-103500000D01*
X183020585Y-103530799D01*
X182792662Y-103591870D01*
X182574680Y-103682160D01*
X182574671Y-103682165D01*
X182370328Y-103800144D01*
X182370318Y-103800150D01*
X182288775Y-103862720D01*
X182288775Y-103862721D01*
X183125012Y-104698958D01*
X183064610Y-104723978D01*
X182958149Y-104795112D01*
X182867612Y-104885649D01*
X182796478Y-104992110D01*
X182771458Y-105052512D01*
X181935221Y-104216275D01*
X181935220Y-104216275D01*
X181872650Y-104297818D01*
X181872644Y-104297828D01*
X181754665Y-104502171D01*
X181754660Y-104502180D01*
X181664370Y-104720162D01*
X181603299Y-104948085D01*
X181572500Y-105182014D01*
X176250500Y-105182014D01*
X176250500Y-100206082D01*
X176250500Y-100206079D01*
X176221659Y-100061092D01*
X176221658Y-100061091D01*
X176221658Y-100061087D01*
X176221656Y-100061082D01*
X176165087Y-99924511D01*
X176165080Y-99924498D01*
X176082952Y-99801585D01*
X176082951Y-99801584D01*
X175978416Y-99697049D01*
X171463368Y-95182000D01*
X171429883Y-95120677D01*
X171431273Y-95062231D01*
X171471404Y-94912463D01*
X171500500Y-94691457D01*
X171500500Y-94468543D01*
X171471404Y-94247537D01*
X171413710Y-94032219D01*
X171328405Y-93826274D01*
X171216948Y-93633226D01*
X171081247Y-93456376D01*
X171081242Y-93456370D01*
X170923629Y-93298757D01*
X170923622Y-93298751D01*
X170746782Y-93163058D01*
X170746780Y-93163057D01*
X170746774Y-93163052D01*
X170553726Y-93051595D01*
X170553722Y-93051593D01*
X170347790Y-92966293D01*
X170347783Y-92966291D01*
X170347781Y-92966290D01*
X170265616Y-92944274D01*
X170205957Y-92907910D01*
X170175428Y-92845063D01*
X170183723Y-92775688D01*
X170228208Y-92721810D01*
X170294760Y-92700535D01*
X170297711Y-92700500D01*
X188575500Y-92700500D01*
X188642539Y-92720185D01*
X188688294Y-92772989D01*
X188699500Y-92824500D01*
X188699500Y-124875500D01*
X188679815Y-124942539D01*
X188627011Y-124988294D01*
X188575500Y-124999500D01*
X108024500Y-124999500D01*
X107957461Y-124979815D01*
X107911706Y-124927011D01*
X107900500Y-124875500D01*
X107900500Y-109171043D01*
X108999499Y-109171043D01*
X109037947Y-109364329D01*
X109037950Y-109364339D01*
X109113364Y-109546407D01*
X109113371Y-109546420D01*
X109222859Y-109710280D01*
X109222860Y-109710281D01*
X109222861Y-109710282D01*
X109362218Y-109849639D01*
X109362219Y-109849639D01*
X109369286Y-109856706D01*
X109369285Y-109856706D01*
X109369289Y-109856709D01*
X111214888Y-111702309D01*
X111248373Y-111763632D01*
X111250146Y-111806175D01*
X111227001Y-111981978D01*
X111227000Y-111981995D01*
X111227000Y-112218004D01*
X111227001Y-112218020D01*
X111257806Y-112452010D01*
X111318894Y-112679993D01*
X111409214Y-112898045D01*
X111409219Y-112898056D01*
X111477361Y-113016079D01*
X111527227Y-113102450D01*
X111527229Y-113102453D01*
X111527230Y-113102454D01*
X111670906Y-113289697D01*
X111670912Y-113289704D01*
X111837795Y-113456587D01*
X111837801Y-113456592D01*
X112025050Y-113600273D01*
X112137940Y-113665450D01*
X112229443Y-113718280D01*
X112229448Y-113718282D01*
X112229451Y-113718284D01*
X112447507Y-113808606D01*
X112675486Y-113869693D01*
X112909489Y-113900500D01*
X112909496Y-113900500D01*
X113145504Y-113900500D01*
X113145511Y-113900500D01*
X113379514Y-113869693D01*
X113607493Y-113808606D01*
X113825549Y-113718284D01*
X114029950Y-113600273D01*
X114217199Y-113456592D01*
X114384092Y-113289699D01*
X114527773Y-113102450D01*
X114645784Y-112898049D01*
X114736106Y-112679993D01*
X114797193Y-112452014D01*
X114828000Y-112218011D01*
X114828000Y-111981989D01*
X114797193Y-111747986D01*
X114736106Y-111520007D01*
X114645784Y-111301951D01*
X114645782Y-111301948D01*
X114645780Y-111301943D01*
X114595903Y-111215555D01*
X114527773Y-111097550D01*
X114509198Y-111073342D01*
X114484004Y-111008176D01*
X114498042Y-110939731D01*
X114546855Y-110889740D01*
X114614946Y-110874076D01*
X114680697Y-110897712D01*
X114695255Y-110910176D01*
X120624715Y-116839637D01*
X120624719Y-116839640D01*
X120788579Y-116949128D01*
X120788585Y-116949131D01*
X120788586Y-116949132D01*
X120970665Y-117024552D01*
X121131889Y-117056621D01*
X121163957Y-117062999D01*
X121163958Y-117063000D01*
X121163959Y-117063000D01*
X121163960Y-117063000D01*
X121361041Y-117063000D01*
X126198538Y-117063000D01*
X126265577Y-117082685D01*
X126287849Y-117102123D01*
X126288262Y-117101711D01*
X126469845Y-117283294D01*
X126469850Y-117283298D01*
X126647617Y-117412452D01*
X126673655Y-117431370D01*
X126816684Y-117504247D01*
X126898116Y-117545739D01*
X126898118Y-117545739D01*
X126898121Y-117545741D01*
X127137715Y-117623590D01*
X127386538Y-117663000D01*
X127386539Y-117663000D01*
X127638461Y-117663000D01*
X127638462Y-117663000D01*
X127887285Y-117623590D01*
X128126879Y-117545741D01*
X128351345Y-117431370D01*
X128555156Y-117283293D01*
X128733293Y-117105156D01*
X128881370Y-116901345D01*
X128995741Y-116676879D01*
X129073590Y-116437285D01*
X129113000Y-116188462D01*
X129113000Y-115936538D01*
X135912000Y-115936538D01*
X135912000Y-116188462D01*
X135921349Y-116247490D01*
X135951410Y-116437285D01*
X136029260Y-116676883D01*
X136087899Y-116791967D01*
X136132486Y-116879474D01*
X136143632Y-116901348D01*
X136291701Y-117105149D01*
X136291705Y-117105154D01*
X136469845Y-117283294D01*
X136469850Y-117283298D01*
X136647617Y-117412452D01*
X136673655Y-117431370D01*
X136816684Y-117504247D01*
X136898116Y-117545739D01*
X136898118Y-117545739D01*
X136898121Y-117545741D01*
X137137715Y-117623590D01*
X137386538Y-117663000D01*
X137386539Y-117663000D01*
X137638461Y-117663000D01*
X137638462Y-117663000D01*
X137887285Y-117623590D01*
X137909311Y-117616432D01*
X137979150Y-117614434D01*
X138035313Y-117646681D01*
X140771580Y-120382948D01*
X140771584Y-120382951D01*
X140894498Y-120465080D01*
X140894511Y-120465087D01*
X141031082Y-120521656D01*
X141031087Y-120521658D01*
X141031091Y-120521658D01*
X141031092Y-120521659D01*
X141176079Y-120550500D01*
X141176082Y-120550500D01*
X154273920Y-120550500D01*
X154371462Y-120531096D01*
X154418913Y-120521658D01*
X154555495Y-120465084D01*
X154678416Y-120382951D01*
X154782951Y-120278416D01*
X154865084Y-120155495D01*
X154921658Y-120018913D01*
X154950500Y-119873918D01*
X154950500Y-119742229D01*
X154970185Y-119675190D01*
X154986814Y-119654553D01*
X156457187Y-118184179D01*
X156518508Y-118150696D01*
X156583181Y-118153930D01*
X156605215Y-118161090D01*
X156854038Y-118200500D01*
X156854039Y-118200500D01*
X157105961Y-118200500D01*
X157105962Y-118200500D01*
X157354785Y-118161090D01*
X157594379Y-118083241D01*
X157818845Y-117968870D01*
X158022656Y-117820793D01*
X158200793Y-117642656D01*
X158348870Y-117438845D01*
X158463241Y-117214379D01*
X158541090Y-116974785D01*
X158580500Y-116725962D01*
X158580500Y-116474038D01*
X158541090Y-116225215D01*
X158463241Y-115985621D01*
X158463239Y-115985618D01*
X158463239Y-115985616D01*
X158402280Y-115865978D01*
X158348870Y-115761155D01*
X158262278Y-115641971D01*
X158200798Y-115557350D01*
X158200794Y-115557345D01*
X158022654Y-115379205D01*
X158022649Y-115379201D01*
X157818848Y-115231132D01*
X157818847Y-115231131D01*
X157818845Y-115231130D01*
X157730512Y-115186122D01*
X157594383Y-115116760D01*
X157354785Y-115038910D01*
X157271261Y-115025681D01*
X157105962Y-114999500D01*
X156854038Y-114999500D01*
X156787738Y-115010001D01*
X156605214Y-115038910D01*
X156365616Y-115116760D01*
X156141151Y-115231132D01*
X155937350Y-115379201D01*
X155937345Y-115379205D01*
X155759205Y-115557345D01*
X155759201Y-115557350D01*
X155611132Y-115761151D01*
X155496760Y-115985616D01*
X155418910Y-116225214D01*
X155381833Y-116459309D01*
X155379500Y-116474038D01*
X155379500Y-116725962D01*
X155397505Y-116839640D01*
X155418910Y-116974786D01*
X155418910Y-116974789D01*
X155426067Y-116996814D01*
X155428062Y-117066655D01*
X155395817Y-117122813D01*
X153617050Y-118901580D01*
X153617044Y-118901588D01*
X153567813Y-118975268D01*
X153567813Y-118975270D01*
X153555037Y-118994390D01*
X153501427Y-119039195D01*
X153451935Y-119049500D01*
X141612229Y-119049500D01*
X141545190Y-119029815D01*
X141524548Y-119013181D01*
X139096681Y-116585313D01*
X139063196Y-116523990D01*
X139066432Y-116459311D01*
X139073590Y-116437285D01*
X139113000Y-116188462D01*
X139113000Y-115936538D01*
X139073590Y-115687715D01*
X138995741Y-115448121D01*
X138995739Y-115448118D01*
X138995739Y-115448116D01*
X138921342Y-115302105D01*
X138881370Y-115223655D01*
X138854101Y-115186122D01*
X138733298Y-115019850D01*
X138733294Y-115019845D01*
X138555154Y-114841705D01*
X138555149Y-114841701D01*
X138351348Y-114693632D01*
X138351347Y-114693631D01*
X138351345Y-114693630D01*
X138281247Y-114657913D01*
X138126883Y-114579260D01*
X137887285Y-114501410D01*
X137874361Y-114499363D01*
X137638462Y-114462000D01*
X137386538Y-114462000D01*
X137262126Y-114481705D01*
X137137714Y-114501410D01*
X136898116Y-114579260D01*
X136673651Y-114693632D01*
X136469850Y-114841701D01*
X136469845Y-114841705D01*
X136291705Y-115019845D01*
X136291701Y-115019850D01*
X136143632Y-115223651D01*
X136029260Y-115448116D01*
X135951410Y-115687714D01*
X135925285Y-115852661D01*
X135912000Y-115936538D01*
X129113000Y-115936538D01*
X129073590Y-115687715D01*
X128995741Y-115448121D01*
X128995739Y-115448118D01*
X128995739Y-115448116D01*
X128921342Y-115302105D01*
X128881370Y-115223655D01*
X128854101Y-115186122D01*
X128733298Y-115019850D01*
X128733294Y-115019845D01*
X128555154Y-114841705D01*
X128555149Y-114841701D01*
X128351348Y-114693632D01*
X128351347Y-114693631D01*
X128351345Y-114693630D01*
X128281247Y-114657913D01*
X128126883Y-114579260D01*
X127887285Y-114501410D01*
X127874361Y-114499363D01*
X127638462Y-114462000D01*
X127386538Y-114462000D01*
X127262126Y-114481705D01*
X127137714Y-114501410D01*
X126898116Y-114579260D01*
X126673651Y-114693632D01*
X126469850Y-114841701D01*
X126469845Y-114841705D01*
X126288262Y-115023289D01*
X126287187Y-115022214D01*
X126234320Y-115056725D01*
X126198538Y-115062000D01*
X121728283Y-115062000D01*
X121661244Y-115042315D01*
X121640602Y-115025681D01*
X114864318Y-108249398D01*
X114830833Y-108188075D01*
X114827999Y-108161726D01*
X114827999Y-105999992D01*
X114817499Y-105897203D01*
X114762314Y-105730666D01*
X114670212Y-105581344D01*
X114546156Y-105457288D01*
X114418165Y-105378343D01*
X114396836Y-105365187D01*
X114396831Y-105365185D01*
X114393312Y-105364019D01*
X114230297Y-105310001D01*
X114230295Y-105310000D01*
X114127510Y-105299500D01*
X111927498Y-105299500D01*
X111927481Y-105299501D01*
X111824703Y-105310000D01*
X111824700Y-105310001D01*
X111658168Y-105365185D01*
X111658163Y-105365187D01*
X111508842Y-105457289D01*
X111384789Y-105581342D01*
X111292687Y-105730663D01*
X111292686Y-105730666D01*
X111255131Y-105844001D01*
X111242206Y-105883005D01*
X111202433Y-105940450D01*
X111137917Y-105967273D01*
X111069142Y-105954958D01*
X111017942Y-105907415D01*
X111000500Y-105844001D01*
X111000500Y-103665782D01*
X111020185Y-103598743D01*
X111036819Y-103578101D01*
X111478101Y-103136819D01*
X111539424Y-103103334D01*
X111565782Y-103100500D01*
X121734218Y-103100500D01*
X121801257Y-103120185D01*
X121821899Y-103136819D01*
X122824715Y-104139637D01*
X122824719Y-104139640D01*
X122988579Y-104249128D01*
X122988585Y-104249131D01*
X122988586Y-104249132D01*
X123170665Y-104324552D01*
X123363955Y-104363000D01*
X123363958Y-104363001D01*
X123363960Y-104363001D01*
X123567155Y-104363001D01*
X123567175Y-104363000D01*
X125788001Y-104363000D01*
X125855040Y-104382685D01*
X125900795Y-104435489D01*
X125912001Y-104487000D01*
X125912001Y-104510376D01*
X125918408Y-104569983D01*
X125968702Y-104704828D01*
X125968706Y-104704835D01*
X126054952Y-104820044D01*
X126054955Y-104820047D01*
X126170164Y-104906293D01*
X126170171Y-104906297D01*
X126305017Y-104956591D01*
X126305016Y-104956591D01*
X126311944Y-104957335D01*
X126364627Y-104963000D01*
X128660372Y-104962999D01*
X128719983Y-104956591D01*
X128854831Y-104906296D01*
X128970046Y-104820046D01*
X129056296Y-104704831D01*
X129106591Y-104569983D01*
X129113000Y-104510373D01*
X129112999Y-103236538D01*
X135912000Y-103236538D01*
X135912000Y-103488462D01*
X135920583Y-103542654D01*
X135951410Y-103737285D01*
X136029260Y-103976883D01*
X136143632Y-104201348D01*
X136291701Y-104405149D01*
X136291705Y-104405154D01*
X136469845Y-104583294D01*
X136469850Y-104583298D01*
X136596039Y-104674979D01*
X136673655Y-104731370D01*
X136798756Y-104795112D01*
X136898116Y-104845739D01*
X136898118Y-104845739D01*
X136898121Y-104845741D01*
X137137715Y-104923590D01*
X137386538Y-104963000D01*
X137386539Y-104963000D01*
X137638461Y-104963000D01*
X137638462Y-104963000D01*
X137887285Y-104923590D01*
X138126879Y-104845741D01*
X138351345Y-104731370D01*
X138555156Y-104583293D01*
X138733293Y-104405156D01*
X138881370Y-104201345D01*
X138995741Y-103976879D01*
X139073590Y-103737285D01*
X139113000Y-103488462D01*
X139113000Y-103236538D01*
X139073590Y-102987715D01*
X138995741Y-102748121D01*
X138995739Y-102748118D01*
X138995739Y-102748116D01*
X138901019Y-102562219D01*
X138881370Y-102523655D01*
X138808137Y-102422858D01*
X138733298Y-102319850D01*
X138733294Y-102319845D01*
X138555154Y-102141705D01*
X138555149Y-102141701D01*
X138351348Y-101993631D01*
X138330703Y-101983112D01*
X138279908Y-101935137D01*
X138263000Y-101872628D01*
X138263000Y-101599982D01*
X145219500Y-101599982D01*
X145219500Y-103400017D01*
X145230000Y-103502796D01*
X145285185Y-103669332D01*
X145285187Y-103669337D01*
X145316926Y-103720793D01*
X145377288Y-103818656D01*
X145501344Y-103942712D01*
X145650665Y-104034814D01*
X145817202Y-104089999D01*
X145919990Y-104100500D01*
X145945500Y-104100500D01*
X146012539Y-104120185D01*
X146058294Y-104172989D01*
X146069500Y-104224500D01*
X146069500Y-108083918D01*
X146069500Y-108083920D01*
X146069499Y-108083920D01*
X146098340Y-108228907D01*
X146098343Y-108228917D01*
X146154913Y-108365490D01*
X146154914Y-108365491D01*
X146154916Y-108365495D01*
X146180011Y-108403052D01*
X146224299Y-108469336D01*
X146237051Y-108488420D01*
X146237052Y-108488421D01*
X147870681Y-110122048D01*
X147904166Y-110183371D01*
X147907000Y-110209729D01*
X147907000Y-110890269D01*
X147887315Y-110957308D01*
X147870681Y-110977950D01*
X146237048Y-112611583D01*
X146214118Y-112645901D01*
X146191340Y-112679993D01*
X146154914Y-112734507D01*
X146154913Y-112734509D01*
X146098343Y-112871082D01*
X146098340Y-112871092D01*
X146069500Y-113016079D01*
X146069500Y-114875500D01*
X146049815Y-114942539D01*
X145997011Y-114988294D01*
X145945500Y-114999500D01*
X145919982Y-114999500D01*
X145817203Y-115010000D01*
X145817202Y-115010001D01*
X145787498Y-115019844D01*
X145650667Y-115065185D01*
X145650662Y-115065187D01*
X145501342Y-115157289D01*
X145377289Y-115281342D01*
X145285187Y-115430662D01*
X145285185Y-115430667D01*
X145276159Y-115457906D01*
X145230001Y-115597202D01*
X145230001Y-115597203D01*
X145230000Y-115597203D01*
X145219500Y-115699982D01*
X145219500Y-117500017D01*
X145230000Y-117602796D01*
X145276159Y-117742093D01*
X145285186Y-117769335D01*
X145377288Y-117918656D01*
X145501344Y-118042712D01*
X145650665Y-118134814D01*
X145817202Y-118189999D01*
X145919990Y-118200500D01*
X145919995Y-118200500D01*
X147720005Y-118200500D01*
X147720010Y-118200500D01*
X147822798Y-118189999D01*
X147989335Y-118134814D01*
X148138656Y-118042712D01*
X148262712Y-117918656D01*
X148354814Y-117769335D01*
X148409999Y-117602798D01*
X148420500Y-117500010D01*
X148420500Y-115699990D01*
X148409999Y-115597202D01*
X148354814Y-115430665D01*
X148262712Y-115281344D01*
X148138656Y-115157288D01*
X147989335Y-115065186D01*
X147822798Y-115010001D01*
X147822796Y-115010000D01*
X147720017Y-114999500D01*
X147720010Y-114999500D01*
X147694500Y-114999500D01*
X147627461Y-114979815D01*
X147581706Y-114927011D01*
X147570500Y-114875500D01*
X147570500Y-113452228D01*
X147590185Y-113385189D01*
X147606814Y-113364552D01*
X148884548Y-112086817D01*
X148945871Y-112053333D01*
X148972229Y-112050499D01*
X150360371Y-112050499D01*
X150360372Y-112050499D01*
X150419983Y-112044091D01*
X150554831Y-111993796D01*
X150670046Y-111907546D01*
X150756296Y-111792331D01*
X150766872Y-111763974D01*
X150808740Y-111708041D01*
X150874204Y-111683622D01*
X150942477Y-111698472D01*
X150955940Y-111706988D01*
X151138723Y-111839788D01*
X151342429Y-111943582D01*
X151559871Y-112014234D01*
X151650000Y-112028509D01*
X151650000Y-111040747D01*
X151687708Y-111062518D01*
X151827591Y-111100000D01*
X151972409Y-111100000D01*
X152112292Y-111062518D01*
X152150000Y-111040747D01*
X152150000Y-112028508D01*
X152240128Y-112014234D01*
X152457570Y-111943582D01*
X152661276Y-111839788D01*
X152846242Y-111705402D01*
X153007905Y-111543739D01*
X153069371Y-111459137D01*
X153124701Y-111416470D01*
X153194314Y-111410491D01*
X153256109Y-111443096D01*
X153270007Y-111459134D01*
X153331714Y-111544066D01*
X153493434Y-111705786D01*
X153678462Y-111840217D01*
X153810599Y-111907544D01*
X153882244Y-111944049D01*
X154099751Y-112014721D01*
X154099752Y-112014721D01*
X154099755Y-112014722D01*
X154325646Y-112050500D01*
X154325647Y-112050500D01*
X154554353Y-112050500D01*
X154554354Y-112050500D01*
X154780245Y-112014722D01*
X154780248Y-112014721D01*
X154780249Y-112014721D01*
X154997755Y-111944049D01*
X154997755Y-111944048D01*
X154997758Y-111944048D01*
X155201538Y-111840217D01*
X155386566Y-111705786D01*
X155548286Y-111544066D01*
X155682717Y-111359038D01*
X155682717Y-111359037D01*
X155685581Y-111355096D01*
X155686591Y-111355830D01*
X155734123Y-111312832D01*
X155788033Y-111300500D01*
X156187770Y-111300500D01*
X156254809Y-111320185D01*
X156275451Y-111336819D01*
X160473526Y-115534893D01*
X160507011Y-115596216D01*
X160508318Y-115641971D01*
X160499500Y-115697647D01*
X160499500Y-115902351D01*
X160531522Y-116104534D01*
X160594781Y-116299223D01*
X160687715Y-116481613D01*
X160808028Y-116647213D01*
X160952786Y-116791971D01*
X161103334Y-116901348D01*
X161118390Y-116912287D01*
X161212209Y-116960090D01*
X161300776Y-117005218D01*
X161300778Y-117005218D01*
X161300781Y-117005220D01*
X161360276Y-117024551D01*
X161495465Y-117068477D01*
X161585170Y-117082685D01*
X161697648Y-117100500D01*
X161697649Y-117100500D01*
X161902351Y-117100500D01*
X161902352Y-117100500D01*
X162104534Y-117068477D01*
X162299219Y-117005220D01*
X162481610Y-116912287D01*
X162581605Y-116839637D01*
X162647213Y-116791971D01*
X162647215Y-116791968D01*
X162647219Y-116791966D01*
X162791966Y-116647219D01*
X162791968Y-116647215D01*
X162791971Y-116647213D01*
X162869315Y-116540756D01*
X162912287Y-116481610D01*
X163005220Y-116299219D01*
X163023933Y-116241625D01*
X163054183Y-116192262D01*
X163400000Y-115846445D01*
X163400000Y-115852661D01*
X163427259Y-115954394D01*
X163479920Y-116045606D01*
X163554394Y-116120080D01*
X163645606Y-116172741D01*
X163747339Y-116200000D01*
X163753553Y-116200000D01*
X163074076Y-116879474D01*
X163118650Y-116911859D01*
X163300968Y-117004755D01*
X163495582Y-117067990D01*
X163697683Y-117100000D01*
X163902317Y-117100000D01*
X164104417Y-117067990D01*
X164299031Y-117004755D01*
X164481349Y-116911859D01*
X164525921Y-116879474D01*
X163846447Y-116200000D01*
X163852661Y-116200000D01*
X163954394Y-116172741D01*
X164045606Y-116120080D01*
X164120080Y-116045606D01*
X164172741Y-115954394D01*
X164200000Y-115852661D01*
X164200000Y-115846448D01*
X164879474Y-116525922D01*
X164879474Y-116525921D01*
X164911859Y-116481349D01*
X165004755Y-116299031D01*
X165067990Y-116104417D01*
X165100000Y-115902317D01*
X165100000Y-115697682D01*
X165095338Y-115668249D01*
X165067990Y-115495582D01*
X165004755Y-115300968D01*
X164911859Y-115118650D01*
X164879474Y-115074077D01*
X164879474Y-115074076D01*
X164200000Y-115753551D01*
X164200000Y-115747339D01*
X164172741Y-115645606D01*
X164120080Y-115554394D01*
X164045606Y-115479920D01*
X163954394Y-115427259D01*
X163852661Y-115400000D01*
X163846446Y-115400000D01*
X164525922Y-114720524D01*
X164525921Y-114720523D01*
X164481359Y-114688147D01*
X164481350Y-114688141D01*
X164299031Y-114595244D01*
X164104417Y-114532009D01*
X163902317Y-114500000D01*
X163697683Y-114500000D01*
X163495582Y-114532009D01*
X163300968Y-114595244D01*
X163118644Y-114688143D01*
X163074077Y-114720523D01*
X163074077Y-114720524D01*
X163753554Y-115400000D01*
X163747339Y-115400000D01*
X163645606Y-115427259D01*
X163554394Y-115479920D01*
X163479920Y-115554394D01*
X163427259Y-115645606D01*
X163400000Y-115747339D01*
X163400000Y-115753553D01*
X163054182Y-115407735D01*
X163023932Y-115358372D01*
X163005220Y-115300781D01*
X162912287Y-115118390D01*
X162880092Y-115074077D01*
X162791971Y-114952786D01*
X162647213Y-114808028D01*
X162481613Y-114687715D01*
X162481612Y-114687714D01*
X162481610Y-114687713D01*
X162424653Y-114658691D01*
X162299223Y-114594781D01*
X162104534Y-114531522D01*
X161914411Y-114501410D01*
X161902352Y-114499500D01*
X161697648Y-114499500D01*
X161641971Y-114508318D01*
X161572678Y-114499363D01*
X161534893Y-114473526D01*
X157028421Y-109967052D01*
X157028414Y-109967046D01*
X156937964Y-109906610D01*
X156937964Y-109906611D01*
X156905495Y-109884916D01*
X156905492Y-109884914D01*
X156905491Y-109884914D01*
X156768917Y-109828343D01*
X156768907Y-109828340D01*
X156757649Y-109826101D01*
X156623920Y-109799500D01*
X156623918Y-109799500D01*
X155788033Y-109799500D01*
X155720994Y-109779815D01*
X155686305Y-109744377D01*
X155685581Y-109744904D01*
X155682717Y-109740962D01*
X155659168Y-109708549D01*
X168099500Y-109708549D01*
X168099500Y-109931450D01*
X168099501Y-109931466D01*
X168128594Y-110152452D01*
X168128595Y-110152457D01*
X168128596Y-110152463D01*
X168174196Y-110322646D01*
X168186290Y-110367780D01*
X168186293Y-110367790D01*
X168238392Y-110493567D01*
X168271595Y-110573726D01*
X168383052Y-110766774D01*
X168383057Y-110766780D01*
X168383058Y-110766782D01*
X168518751Y-110943622D01*
X168518757Y-110943629D01*
X168676370Y-111101242D01*
X168676376Y-111101247D01*
X168853226Y-111236948D01*
X169046274Y-111348405D01*
X169252219Y-111433710D01*
X169467537Y-111491404D01*
X169688543Y-111520500D01*
X169688550Y-111520500D01*
X169911450Y-111520500D01*
X169911457Y-111520500D01*
X170132463Y-111491404D01*
X170347781Y-111433710D01*
X170553726Y-111348405D01*
X170746774Y-111236948D01*
X170923624Y-111101247D01*
X171081247Y-110943624D01*
X171216948Y-110766774D01*
X171328405Y-110573726D01*
X171413710Y-110367781D01*
X171471404Y-110152463D01*
X171500500Y-109931457D01*
X171500500Y-109708543D01*
X171471404Y-109487537D01*
X171413710Y-109272219D01*
X171328405Y-109066274D01*
X171216948Y-108873226D01*
X171081247Y-108696376D01*
X171081242Y-108696370D01*
X170923629Y-108538757D01*
X170923622Y-108538751D01*
X170746782Y-108403058D01*
X170746780Y-108403057D01*
X170746774Y-108403052D01*
X170553726Y-108291595D01*
X170553722Y-108291593D01*
X170347790Y-108206293D01*
X170347783Y-108206291D01*
X170347781Y-108206290D01*
X170132463Y-108148596D01*
X170132457Y-108148595D01*
X170132452Y-108148594D01*
X169911466Y-108119501D01*
X169911463Y-108119500D01*
X169911457Y-108119500D01*
X169688543Y-108119500D01*
X169688537Y-108119500D01*
X169688533Y-108119501D01*
X169467547Y-108148594D01*
X169467540Y-108148595D01*
X169467537Y-108148596D01*
X169418569Y-108161717D01*
X169252219Y-108206290D01*
X169252209Y-108206293D01*
X169046277Y-108291593D01*
X169046273Y-108291595D01*
X169002278Y-108316996D01*
X168853226Y-108403052D01*
X168853222Y-108403054D01*
X168853217Y-108403058D01*
X168676377Y-108538751D01*
X168676370Y-108538757D01*
X168518757Y-108696370D01*
X168518751Y-108696377D01*
X168383058Y-108873217D01*
X168383052Y-108873226D01*
X168271595Y-109066273D01*
X168271593Y-109066277D01*
X168186293Y-109272209D01*
X168186290Y-109272219D01*
X168128597Y-109487534D01*
X168128594Y-109487547D01*
X168099501Y-109708533D01*
X168099500Y-109708549D01*
X155659168Y-109708549D01*
X155548286Y-109555934D01*
X155386566Y-109394214D01*
X155201538Y-109259783D01*
X154997755Y-109155950D01*
X154780248Y-109085278D01*
X154610826Y-109058444D01*
X154554354Y-109049500D01*
X154325646Y-109049500D01*
X154250349Y-109061426D01*
X154099753Y-109085278D01*
X154099750Y-109085278D01*
X153882244Y-109155950D01*
X153678461Y-109259783D01*
X153661345Y-109272219D01*
X153493434Y-109394214D01*
X153493432Y-109394216D01*
X153493431Y-109394216D01*
X153331716Y-109555931D01*
X153331709Y-109555940D01*
X153270007Y-109640864D01*
X153214677Y-109683530D01*
X153145063Y-109689508D01*
X153083269Y-109656901D01*
X153069372Y-109640863D01*
X153007907Y-109556263D01*
X153007902Y-109556257D01*
X152846242Y-109394597D01*
X152661276Y-109260211D01*
X152457568Y-109156417D01*
X152240124Y-109085765D01*
X152174441Y-109075362D01*
X152111306Y-109045433D01*
X152074375Y-108986121D01*
X152075373Y-108916259D01*
X152106156Y-108865210D01*
X154084548Y-106886819D01*
X154145871Y-106853334D01*
X154172229Y-106850500D01*
X160874582Y-106850500D01*
X160941621Y-106870185D01*
X160974900Y-106901615D01*
X161008028Y-106947212D01*
X161008032Y-106947217D01*
X161152786Y-107091971D01*
X161273226Y-107179474D01*
X161318390Y-107212287D01*
X161434607Y-107271503D01*
X161500776Y-107305218D01*
X161500778Y-107305218D01*
X161500781Y-107305220D01*
X161605137Y-107339127D01*
X161695465Y-107368477D01*
X161796557Y-107384488D01*
X161897648Y-107400500D01*
X161897649Y-107400500D01*
X162102351Y-107400500D01*
X162102352Y-107400500D01*
X162304534Y-107368477D01*
X162499219Y-107305220D01*
X162681610Y-107212287D01*
X162774590Y-107144732D01*
X162847213Y-107091971D01*
X162847215Y-107091968D01*
X162847219Y-107091966D01*
X162991966Y-106947219D01*
X162991968Y-106947215D01*
X162991971Y-106947213D01*
X163062236Y-106850500D01*
X163112287Y-106781610D01*
X163205220Y-106599219D01*
X163223933Y-106541625D01*
X163254183Y-106492262D01*
X163600000Y-106146445D01*
X163600000Y-106152661D01*
X163627259Y-106254394D01*
X163679920Y-106345606D01*
X163754394Y-106420080D01*
X163845606Y-106472741D01*
X163947339Y-106500000D01*
X163953553Y-106500000D01*
X163274076Y-107179474D01*
X163318650Y-107211859D01*
X163500968Y-107304755D01*
X163695582Y-107367990D01*
X163897683Y-107400000D01*
X164102317Y-107400000D01*
X164304417Y-107367990D01*
X164499031Y-107304755D01*
X164681349Y-107211859D01*
X164725921Y-107179474D01*
X164046447Y-106500000D01*
X164052661Y-106500000D01*
X164154394Y-106472741D01*
X164245606Y-106420080D01*
X164320080Y-106345606D01*
X164372741Y-106254394D01*
X164400000Y-106152661D01*
X164400000Y-106146448D01*
X165079474Y-106825922D01*
X165079474Y-106825921D01*
X165111859Y-106781349D01*
X165204755Y-106599031D01*
X165267990Y-106404417D01*
X165300000Y-106202317D01*
X165300000Y-105997682D01*
X165267990Y-105795582D01*
X165204755Y-105600968D01*
X165111859Y-105418650D01*
X165079474Y-105374077D01*
X165079474Y-105374076D01*
X164400000Y-106053551D01*
X164400000Y-106047339D01*
X164372741Y-105945606D01*
X164320080Y-105854394D01*
X164245606Y-105779920D01*
X164154394Y-105727259D01*
X164052661Y-105700000D01*
X164046446Y-105700000D01*
X164725922Y-105020524D01*
X164725921Y-105020523D01*
X164681359Y-104988147D01*
X164681350Y-104988141D01*
X164499031Y-104895244D01*
X164304417Y-104832009D01*
X164102317Y-104800000D01*
X163897683Y-104800000D01*
X163695582Y-104832009D01*
X163500968Y-104895244D01*
X163318644Y-104988143D01*
X163274077Y-105020523D01*
X163274077Y-105020524D01*
X163953554Y-105700000D01*
X163947339Y-105700000D01*
X163845606Y-105727259D01*
X163754394Y-105779920D01*
X163679920Y-105854394D01*
X163627259Y-105945606D01*
X163600000Y-106047339D01*
X163600000Y-106053553D01*
X163254182Y-105707735D01*
X163223932Y-105658372D01*
X163205220Y-105600781D01*
X163112287Y-105418390D01*
X163104556Y-105407749D01*
X162991971Y-105252786D01*
X162847213Y-105108028D01*
X162681613Y-104987715D01*
X162681612Y-104987714D01*
X162681610Y-104987713D01*
X162600619Y-104946446D01*
X162499223Y-104894781D01*
X162304534Y-104831522D01*
X162129995Y-104803878D01*
X162102352Y-104799500D01*
X161897648Y-104799500D01*
X161873329Y-104803351D01*
X161695465Y-104831522D01*
X161500776Y-104894781D01*
X161318386Y-104987715D01*
X161152786Y-105108028D01*
X161008032Y-105252782D01*
X161008028Y-105252787D01*
X160974900Y-105298385D01*
X160919571Y-105341051D01*
X160874582Y-105349500D01*
X153736080Y-105349500D01*
X153591092Y-105378340D01*
X153591082Y-105378343D01*
X153454511Y-105434912D01*
X153454498Y-105434919D01*
X153331584Y-105517048D01*
X153331580Y-105517051D01*
X149835450Y-109013181D01*
X149774127Y-109046666D01*
X149747769Y-109049500D01*
X148972230Y-109049500D01*
X148905191Y-109029815D01*
X148884549Y-109013181D01*
X147606819Y-107735451D01*
X147573334Y-107674128D01*
X147570500Y-107647770D01*
X147570500Y-104224500D01*
X147590185Y-104157461D01*
X147642989Y-104111706D01*
X147694500Y-104100500D01*
X147720005Y-104100500D01*
X147720010Y-104100500D01*
X147822798Y-104089999D01*
X147989335Y-104034814D01*
X148138656Y-103942712D01*
X148262712Y-103818656D01*
X148354814Y-103669335D01*
X148409999Y-103502798D01*
X148420500Y-103400010D01*
X148420500Y-101599990D01*
X148409999Y-101497202D01*
X148354814Y-101330665D01*
X148262712Y-101181344D01*
X148138656Y-101057288D01*
X147989335Y-100965186D01*
X147822798Y-100910001D01*
X147822796Y-100910000D01*
X147720017Y-100899500D01*
X147720010Y-100899500D01*
X145919990Y-100899500D01*
X145919982Y-100899500D01*
X145817203Y-100910000D01*
X145817202Y-100910001D01*
X145734669Y-100937349D01*
X145650667Y-100965185D01*
X145650662Y-100965187D01*
X145501342Y-101057289D01*
X145377289Y-101181342D01*
X145285187Y-101330662D01*
X145285186Y-101330665D01*
X145230001Y-101497202D01*
X145230001Y-101497203D01*
X145230000Y-101497203D01*
X145219500Y-101599982D01*
X138263000Y-101599982D01*
X138263000Y-101549730D01*
X138282685Y-101482691D01*
X138299319Y-101462049D01*
X140474549Y-99286819D01*
X140535872Y-99253334D01*
X140562230Y-99250500D01*
X154837770Y-99250500D01*
X154904809Y-99270185D01*
X154925451Y-99286819D01*
X156193181Y-100554548D01*
X156226666Y-100615871D01*
X156229500Y-100642229D01*
X156229500Y-101010128D01*
X156209815Y-101077167D01*
X156161797Y-101120612D01*
X156141151Y-101131131D01*
X155937350Y-101279201D01*
X155937345Y-101279205D01*
X155759205Y-101457345D01*
X155759201Y-101457350D01*
X155611132Y-101661151D01*
X155496760Y-101885616D01*
X155418910Y-102125214D01*
X155418910Y-102125215D01*
X155379500Y-102374038D01*
X155379500Y-102625962D01*
X155398848Y-102748121D01*
X155418910Y-102874785D01*
X155496760Y-103114383D01*
X155611132Y-103338848D01*
X155759201Y-103542649D01*
X155759205Y-103542654D01*
X155937345Y-103720794D01*
X155937350Y-103720798D01*
X156115117Y-103849952D01*
X156141155Y-103868870D01*
X156284184Y-103941747D01*
X156365616Y-103983239D01*
X156365618Y-103983239D01*
X156365621Y-103983241D01*
X156605215Y-104061090D01*
X156854038Y-104100500D01*
X156854039Y-104100500D01*
X157105961Y-104100500D01*
X157105962Y-104100500D01*
X157354785Y-104061090D01*
X157594379Y-103983241D01*
X157818845Y-103868870D01*
X158022656Y-103720793D01*
X158200793Y-103542656D01*
X158348870Y-103338845D01*
X158463241Y-103114379D01*
X158541090Y-102874785D01*
X158580500Y-102625962D01*
X158580500Y-102374038D01*
X158541090Y-102125215D01*
X158463241Y-101885621D01*
X158463239Y-101885618D01*
X158463239Y-101885616D01*
X158421747Y-101804184D01*
X158348870Y-101661155D01*
X158304425Y-101599982D01*
X158200798Y-101457350D01*
X158200794Y-101457345D01*
X158022654Y-101279205D01*
X158022649Y-101279201D01*
X157818848Y-101131131D01*
X157798203Y-101120612D01*
X157747408Y-101072637D01*
X157730500Y-101010128D01*
X157730500Y-100206079D01*
X157701659Y-100061092D01*
X157701658Y-100061091D01*
X157701658Y-100061087D01*
X157701656Y-100061082D01*
X157645087Y-99924511D01*
X157645080Y-99924498D01*
X157562952Y-99801585D01*
X157562951Y-99801584D01*
X157458416Y-99697049D01*
X157014701Y-99253334D01*
X155678421Y-97917052D01*
X155678414Y-97917046D01*
X155604729Y-97867812D01*
X155604729Y-97867813D01*
X155555491Y-97834913D01*
X155418917Y-97778343D01*
X155418907Y-97778340D01*
X155273920Y-97749500D01*
X155273918Y-97749500D01*
X140126082Y-97749500D01*
X140126080Y-97749500D01*
X139981092Y-97778340D01*
X139981086Y-97778342D01*
X139844508Y-97834914D01*
X139844496Y-97834921D01*
X139795269Y-97867813D01*
X139721588Y-97917044D01*
X139721580Y-97917050D01*
X136929549Y-100709081D01*
X136896585Y-100758415D01*
X136896586Y-100758416D01*
X136847414Y-100832008D01*
X136790843Y-100968582D01*
X136790840Y-100968592D01*
X136762000Y-101113579D01*
X136762000Y-101872628D01*
X136742315Y-101939667D01*
X136694297Y-101983112D01*
X136673651Y-101993631D01*
X136469850Y-102141701D01*
X136469845Y-102141705D01*
X136291705Y-102319845D01*
X136291701Y-102319850D01*
X136143632Y-102523651D01*
X136029260Y-102748116D01*
X135951410Y-102987714D01*
X135933098Y-103103334D01*
X135912000Y-103236538D01*
X129112999Y-103236538D01*
X129112999Y-102214628D01*
X129106591Y-102155017D01*
X129101624Y-102141701D01*
X129056297Y-102020171D01*
X129056293Y-102020164D01*
X128970047Y-101904955D01*
X128970044Y-101904952D01*
X128854835Y-101818706D01*
X128854828Y-101818702D01*
X128719982Y-101768408D01*
X128719983Y-101768408D01*
X128660383Y-101762001D01*
X128660381Y-101762000D01*
X128660373Y-101762000D01*
X128660364Y-101762000D01*
X126364629Y-101762000D01*
X126364623Y-101762001D01*
X126305016Y-101768408D01*
X126170171Y-101818702D01*
X126170164Y-101818706D01*
X126054955Y-101904952D01*
X126054952Y-101904955D01*
X125968706Y-102020164D01*
X125968702Y-102020171D01*
X125918408Y-102155017D01*
X125912001Y-102214616D01*
X125912001Y-102214623D01*
X125912000Y-102214635D01*
X125912000Y-102238000D01*
X125892315Y-102305039D01*
X125839511Y-102350794D01*
X125788000Y-102362000D01*
X123928283Y-102362000D01*
X123861244Y-102342315D01*
X123840602Y-102325681D01*
X122984209Y-101469289D01*
X122984206Y-101469285D01*
X122984206Y-101469286D01*
X122977139Y-101462219D01*
X122977139Y-101462218D01*
X122837782Y-101322861D01*
X122837781Y-101322860D01*
X122837780Y-101322859D01*
X122673920Y-101213371D01*
X122673911Y-101213366D01*
X122590683Y-101178892D01*
X122545165Y-101160038D01*
X122518500Y-101148993D01*
X122491837Y-101137949D01*
X122491833Y-101137948D01*
X122369335Y-101113582D01*
X122298543Y-101099500D01*
X122298541Y-101099500D01*
X111001459Y-101099500D01*
X111001457Y-101099500D01*
X110930665Y-101113582D01*
X110930664Y-101113582D01*
X110808167Y-101137947D01*
X110808159Y-101137950D01*
X110754834Y-101160037D01*
X110754834Y-101160038D01*
X110709315Y-101178892D01*
X110626089Y-101213366D01*
X110626079Y-101213371D01*
X110462219Y-101322859D01*
X110392540Y-101392538D01*
X110322861Y-101462218D01*
X110322858Y-101462221D01*
X109362221Y-102422858D01*
X109362218Y-102422861D01*
X109292538Y-102492540D01*
X109222859Y-102562219D01*
X109113371Y-102726080D01*
X109113366Y-102726089D01*
X109080093Y-102806420D01*
X109037949Y-102908164D01*
X109023975Y-102978416D01*
X108999500Y-103101459D01*
X108999500Y-109171041D01*
X108999500Y-109171043D01*
X108999499Y-109171043D01*
X107900500Y-109171043D01*
X107900500Y-92824500D01*
X107920185Y-92757461D01*
X107972989Y-92711706D01*
X108024500Y-92700500D01*
X169302289Y-92700500D01*
X169369328Y-92720185D01*
G37*
%TD.AperFunction*%
%TD*%
M02*
