%TF.GenerationSoftware,KiCad,Pcbnew,10.0.5*%
%TF.CreationDate,2026-10-05T19:40:19+05:30*%
%TF.ProjectId,Full WaveRectfier,46756c6c-2057-4617-9665-526563746669,rev?*%
%TF.SameCoordinates,Original*%
%TF.FileFunction,Legend,Top*%
%TF.FilePolarity,Positive*%
%FSLAX46Y46*%
G04 Gerber Fmt 4.6, Leading zero omitted, Abs format (unit mm)*
G04 Created by KiCad (PCBNEW 10.0.5) date 2026-10-05 19:40:19*
%MOMM*%
%LPD*%
G01*
G04 APERTURE LIST*
%ADD10C,0.150000*%
%ADD11C,0.120000*%
G04 APERTURE END LIST*
D10*
X166884819Y-102366666D02*
X166408628Y-102699999D01*
X166884819Y-102938094D02*
X165884819Y-102938094D01*
X165884819Y-102938094D02*
X165884819Y-102557142D01*
X165884819Y-102557142D02*
X165932438Y-102461904D01*
X165932438Y-102461904D02*
X165980057Y-102414285D01*
X165980057Y-102414285D02*
X166075295Y-102366666D01*
X166075295Y-102366666D02*
X166218152Y-102366666D01*
X166218152Y-102366666D02*
X166313390Y-102414285D01*
X166313390Y-102414285D02*
X166361009Y-102461904D01*
X166361009Y-102461904D02*
X166408628Y-102557142D01*
X166408628Y-102557142D02*
X166408628Y-102938094D01*
X166884819Y-101414285D02*
X166884819Y-101985713D01*
X166884819Y-101699999D02*
X165884819Y-101699999D01*
X165884819Y-101699999D02*
X166027676Y-101795237D01*
X166027676Y-101795237D02*
X166122914Y-101890475D01*
X166122914Y-101890475D02*
X166170533Y-101985713D01*
X176507319Y-108133333D02*
X177221604Y-108133333D01*
X177221604Y-108133333D02*
X177364461Y-108180952D01*
X177364461Y-108180952D02*
X177459700Y-108276190D01*
X177459700Y-108276190D02*
X177507319Y-108419047D01*
X177507319Y-108419047D02*
X177507319Y-108514285D01*
X176602557Y-107704761D02*
X176554938Y-107657142D01*
X176554938Y-107657142D02*
X176507319Y-107561904D01*
X176507319Y-107561904D02*
X176507319Y-107323809D01*
X176507319Y-107323809D02*
X176554938Y-107228571D01*
X176554938Y-107228571D02*
X176602557Y-107180952D01*
X176602557Y-107180952D02*
X176697795Y-107133333D01*
X176697795Y-107133333D02*
X176793033Y-107133333D01*
X176793033Y-107133333D02*
X176935890Y-107180952D01*
X176935890Y-107180952D02*
X177507319Y-107752380D01*
X177507319Y-107752380D02*
X177507319Y-107133333D01*
X151161905Y-114584819D02*
X151161905Y-113584819D01*
X151161905Y-113584819D02*
X151400000Y-113584819D01*
X151400000Y-113584819D02*
X151542857Y-113632438D01*
X151542857Y-113632438D02*
X151638095Y-113727676D01*
X151638095Y-113727676D02*
X151685714Y-113822914D01*
X151685714Y-113822914D02*
X151733333Y-114013390D01*
X151733333Y-114013390D02*
X151733333Y-114156247D01*
X151733333Y-114156247D02*
X151685714Y-114346723D01*
X151685714Y-114346723D02*
X151638095Y-114441961D01*
X151638095Y-114441961D02*
X151542857Y-114537200D01*
X151542857Y-114537200D02*
X151400000Y-114584819D01*
X151400000Y-114584819D02*
X151161905Y-114584819D01*
X152114286Y-113680057D02*
X152161905Y-113632438D01*
X152161905Y-113632438D02*
X152257143Y-113584819D01*
X152257143Y-113584819D02*
X152495238Y-113584819D01*
X152495238Y-113584819D02*
X152590476Y-113632438D01*
X152590476Y-113632438D02*
X152638095Y-113680057D01*
X152638095Y-113680057D02*
X152685714Y-113775295D01*
X152685714Y-113775295D02*
X152685714Y-113870533D01*
X152685714Y-113870533D02*
X152638095Y-114013390D01*
X152638095Y-114013390D02*
X152066667Y-114584819D01*
X152066667Y-114584819D02*
X152685714Y-114584819D01*
X146558095Y-114954819D02*
X146558095Y-113954819D01*
X147129523Y-114954819D02*
X146700952Y-114383390D01*
X147129523Y-113954819D02*
X146558095Y-114526247D01*
X170831905Y-113094819D02*
X170831905Y-112094819D01*
X170831905Y-112094819D02*
X171070000Y-112094819D01*
X171070000Y-112094819D02*
X171212857Y-112142438D01*
X171212857Y-112142438D02*
X171308095Y-112237676D01*
X171308095Y-112237676D02*
X171355714Y-112332914D01*
X171355714Y-112332914D02*
X171403333Y-112523390D01*
X171403333Y-112523390D02*
X171403333Y-112666247D01*
X171403333Y-112666247D02*
X171355714Y-112856723D01*
X171355714Y-112856723D02*
X171308095Y-112951961D01*
X171308095Y-112951961D02*
X171212857Y-113047200D01*
X171212857Y-113047200D02*
X171070000Y-113094819D01*
X171070000Y-113094819D02*
X170831905Y-113094819D01*
X171736667Y-112094819D02*
X172355714Y-112094819D01*
X172355714Y-112094819D02*
X172022381Y-112475771D01*
X172022381Y-112475771D02*
X172165238Y-112475771D01*
X172165238Y-112475771D02*
X172260476Y-112523390D01*
X172260476Y-112523390D02*
X172308095Y-112571009D01*
X172308095Y-112571009D02*
X172355714Y-112666247D01*
X172355714Y-112666247D02*
X172355714Y-112904342D01*
X172355714Y-112904342D02*
X172308095Y-112999580D01*
X172308095Y-112999580D02*
X172260476Y-113047200D01*
X172260476Y-113047200D02*
X172165238Y-113094819D01*
X172165238Y-113094819D02*
X171879524Y-113094819D01*
X171879524Y-113094819D02*
X171784286Y-113047200D01*
X171784286Y-113047200D02*
X171736667Y-112999580D01*
X151161905Y-100484819D02*
X151161905Y-99484819D01*
X151161905Y-99484819D02*
X151400000Y-99484819D01*
X151400000Y-99484819D02*
X151542857Y-99532438D01*
X151542857Y-99532438D02*
X151638095Y-99627676D01*
X151638095Y-99627676D02*
X151685714Y-99722914D01*
X151685714Y-99722914D02*
X151733333Y-99913390D01*
X151733333Y-99913390D02*
X151733333Y-100056247D01*
X151733333Y-100056247D02*
X151685714Y-100246723D01*
X151685714Y-100246723D02*
X151638095Y-100341961D01*
X151638095Y-100341961D02*
X151542857Y-100437200D01*
X151542857Y-100437200D02*
X151400000Y-100484819D01*
X151400000Y-100484819D02*
X151161905Y-100484819D01*
X152685714Y-100484819D02*
X152114286Y-100484819D01*
X152400000Y-100484819D02*
X152400000Y-99484819D01*
X152400000Y-99484819D02*
X152304762Y-99627676D01*
X152304762Y-99627676D02*
X152209524Y-99722914D01*
X152209524Y-99722914D02*
X152114286Y-99770533D01*
X146558095Y-100854819D02*
X146558095Y-99854819D01*
X147129523Y-100854819D02*
X146700952Y-100283390D01*
X147129523Y-99854819D02*
X146558095Y-100426247D01*
X162633333Y-112409580D02*
X162585714Y-112457200D01*
X162585714Y-112457200D02*
X162442857Y-112504819D01*
X162442857Y-112504819D02*
X162347619Y-112504819D01*
X162347619Y-112504819D02*
X162204762Y-112457200D01*
X162204762Y-112457200D02*
X162109524Y-112361961D01*
X162109524Y-112361961D02*
X162061905Y-112266723D01*
X162061905Y-112266723D02*
X162014286Y-112076247D01*
X162014286Y-112076247D02*
X162014286Y-111933390D01*
X162014286Y-111933390D02*
X162061905Y-111742914D01*
X162061905Y-111742914D02*
X162109524Y-111647676D01*
X162109524Y-111647676D02*
X162204762Y-111552438D01*
X162204762Y-111552438D02*
X162347619Y-111504819D01*
X162347619Y-111504819D02*
X162442857Y-111504819D01*
X162442857Y-111504819D02*
X162585714Y-111552438D01*
X162585714Y-111552438D02*
X162633333Y-111600057D01*
X163014286Y-111600057D02*
X163061905Y-111552438D01*
X163061905Y-111552438D02*
X163157143Y-111504819D01*
X163157143Y-111504819D02*
X163395238Y-111504819D01*
X163395238Y-111504819D02*
X163490476Y-111552438D01*
X163490476Y-111552438D02*
X163538095Y-111600057D01*
X163538095Y-111600057D02*
X163585714Y-111695295D01*
X163585714Y-111695295D02*
X163585714Y-111790533D01*
X163585714Y-111790533D02*
X163538095Y-111933390D01*
X163538095Y-111933390D02*
X162966667Y-112504819D01*
X162966667Y-112504819D02*
X163585714Y-112504819D01*
X162833333Y-102709580D02*
X162785714Y-102757200D01*
X162785714Y-102757200D02*
X162642857Y-102804819D01*
X162642857Y-102804819D02*
X162547619Y-102804819D01*
X162547619Y-102804819D02*
X162404762Y-102757200D01*
X162404762Y-102757200D02*
X162309524Y-102661961D01*
X162309524Y-102661961D02*
X162261905Y-102566723D01*
X162261905Y-102566723D02*
X162214286Y-102376247D01*
X162214286Y-102376247D02*
X162214286Y-102233390D01*
X162214286Y-102233390D02*
X162261905Y-102042914D01*
X162261905Y-102042914D02*
X162309524Y-101947676D01*
X162309524Y-101947676D02*
X162404762Y-101852438D01*
X162404762Y-101852438D02*
X162547619Y-101804819D01*
X162547619Y-101804819D02*
X162642857Y-101804819D01*
X162642857Y-101804819D02*
X162785714Y-101852438D01*
X162785714Y-101852438D02*
X162833333Y-101900057D01*
X163785714Y-102804819D02*
X163214286Y-102804819D01*
X163500000Y-102804819D02*
X163500000Y-101804819D01*
X163500000Y-101804819D02*
X163404762Y-101947676D01*
X163404762Y-101947676D02*
X163309524Y-102042914D01*
X163309524Y-102042914D02*
X163214286Y-102090533D01*
X132250595Y-99517319D02*
X132822023Y-99517319D01*
X132536309Y-100517319D02*
X132536309Y-99517319D01*
X133679166Y-100517319D02*
X133107738Y-100517319D01*
X133393452Y-100517319D02*
X133393452Y-99517319D01*
X133393452Y-99517319D02*
X133298214Y-99660176D01*
X133298214Y-99660176D02*
X133202976Y-99755414D01*
X133202976Y-99755414D02*
X133107738Y-99803033D01*
X118802319Y-109933333D02*
X119516604Y-109933333D01*
X119516604Y-109933333D02*
X119659461Y-109980952D01*
X119659461Y-109980952D02*
X119754700Y-110076190D01*
X119754700Y-110076190D02*
X119802319Y-110219047D01*
X119802319Y-110219047D02*
X119802319Y-110314285D01*
X119802319Y-108933333D02*
X119802319Y-109504761D01*
X119802319Y-109219047D02*
X118802319Y-109219047D01*
X118802319Y-109219047D02*
X118945176Y-109314285D01*
X118945176Y-109314285D02*
X119040414Y-109409523D01*
X119040414Y-109409523D02*
X119088033Y-109504761D01*
X151138095Y-105904819D02*
X151138095Y-106714342D01*
X151138095Y-106714342D02*
X151185714Y-106809580D01*
X151185714Y-106809580D02*
X151233333Y-106857200D01*
X151233333Y-106857200D02*
X151328571Y-106904819D01*
X151328571Y-106904819D02*
X151519047Y-106904819D01*
X151519047Y-106904819D02*
X151614285Y-106857200D01*
X151614285Y-106857200D02*
X151661904Y-106809580D01*
X151661904Y-106809580D02*
X151709523Y-106714342D01*
X151709523Y-106714342D02*
X151709523Y-105904819D01*
X152709523Y-106904819D02*
X152138095Y-106904819D01*
X152423809Y-106904819D02*
X152423809Y-105904819D01*
X152423809Y-105904819D02*
X152328571Y-106047676D01*
X152328571Y-106047676D02*
X152233333Y-106142914D01*
X152233333Y-106142914D02*
X152138095Y-106190533D01*
%TO.C,R1*%
D11*
X169800000Y-108380000D02*
X169800000Y-108270000D01*
X169800000Y-96020000D02*
X169800000Y-96130000D01*
X167430000Y-96130000D02*
X172170000Y-96130000D01*
X172170000Y-108270000D01*
X167430000Y-108270000D01*
X167430000Y-96130000D01*
%TO.C,J2*%
X178052500Y-112920000D02*
X178052500Y-102680000D01*
X181072500Y-112920000D02*
X181072500Y-102680000D01*
X185972500Y-112920000D02*
X185972500Y-102680000D01*
X187472500Y-112920000D02*
X187472500Y-102680000D01*
X188092500Y-112920000D02*
X178052500Y-112920000D01*
X188092500Y-110600000D02*
X188092500Y-112920000D01*
X178052500Y-102680000D02*
X188092500Y-102680000D01*
X188092500Y-102680000D02*
X188092500Y-110000000D01*
X188092500Y-110300000D02*
X188702500Y-109860000D01*
X188702500Y-110740000D01*
X188092500Y-110300000D01*
G36*
X188702500Y-110740000D02*
G01*
X188092500Y-110300000D01*
X188702500Y-109860000D01*
X188702500Y-110740000D01*
G37*
%TO.C,D2*%
X148160000Y-116600000D02*
X149180000Y-116600000D01*
X149960000Y-115130000D02*
X149960000Y-118070000D01*
X150080000Y-115130000D02*
X150080000Y-118070000D01*
X150200000Y-115130000D02*
X150200000Y-118070000D01*
X155640000Y-116600000D02*
X154620000Y-116600000D01*
X149180000Y-115130000D02*
X154620000Y-115130000D01*
X154620000Y-118070000D01*
X149180000Y-118070000D01*
X149180000Y-115130000D01*
%TO.C,D3*%
X169010000Y-115055000D02*
X169010000Y-118145000D01*
X169010000Y-115055170D02*
G75*
G02*
X174560000Y-116600000I2560000J-1544830D01*
G01*
X174560000Y-116600000D02*
G75*
G02*
X169010000Y-118144830I-2990000J0D01*
G01*
X174070000Y-116600000D02*
G75*
G02*
X169070000Y-116600000I-2500000J0D01*
G01*
X169070000Y-116600000D02*
G75*
G02*
X174070000Y-116600000I2500000J0D01*
G01*
%TO.C,D1*%
X148160000Y-102500000D02*
X149180000Y-102500000D01*
X149960000Y-101030000D02*
X149960000Y-103970000D01*
X150080000Y-101030000D02*
X150080000Y-103970000D01*
X150200000Y-101030000D02*
X150200000Y-103970000D01*
X155640000Y-102500000D02*
X154620000Y-102500000D01*
X149180000Y-101030000D02*
X154620000Y-101030000D01*
X154620000Y-103970000D01*
X149180000Y-103970000D01*
X149180000Y-101030000D01*
%TO.C,C2*%
X165420000Y-115800000D02*
G75*
G02*
X160180000Y-115800000I-2620000J0D01*
G01*
X160180000Y-115800000D02*
G75*
G02*
X165420000Y-115800000I2620000J0D01*
G01*
%TO.C,C1*%
X165620000Y-106100000D02*
G75*
G02*
X160380000Y-106100000I-2620000J0D01*
G01*
X160380000Y-106100000D02*
G75*
G02*
X165620000Y-106100000I2620000J0D01*
G01*
%TO.C,T1*%
X122572500Y-100522500D02*
X123852500Y-100522500D01*
X122572500Y-101802500D02*
X122572500Y-100522500D01*
X122872500Y-100822500D02*
X142152500Y-100822500D01*
X142152500Y-118602500D01*
X122872500Y-118602500D01*
X122872500Y-100822500D01*
%TO.C,J1*%
X108307500Y-104480000D02*
X118347500Y-104480000D01*
X108307500Y-106800000D02*
X108307500Y-104480000D01*
X108307500Y-114720000D02*
X108307500Y-107400000D01*
X108927500Y-104480000D02*
X108927500Y-114720000D01*
X110427500Y-104480000D02*
X110427500Y-114720000D01*
X115327500Y-104480000D02*
X115327500Y-114720000D01*
X118347500Y-104480000D02*
X118347500Y-114720000D01*
X118347500Y-114720000D02*
X108307500Y-114720000D01*
X108307500Y-107100000D02*
X107697500Y-107540000D01*
X107697500Y-106660000D01*
X108307500Y-107100000D01*
G36*
X108307500Y-107100000D02*
G01*
X107697500Y-107540000D01*
X107697500Y-106660000D01*
X108307500Y-107100000D01*
G37*
%TO.C,U1*%
X146790000Y-107290000D02*
X157010000Y-107290000D01*
X146790000Y-108670000D02*
X157010000Y-108670000D01*
X146790000Y-111910000D02*
X146790000Y-107290000D01*
X150050000Y-107290000D02*
X150050000Y-108670000D01*
X153750000Y-107290000D02*
X153750000Y-108670000D01*
X157010000Y-107290000D02*
X157010000Y-111910000D01*
X157010000Y-111910000D02*
X146790000Y-111910000D01*
%TD*%
M02*
