%TF.GenerationSoftware,KiCad,Pcbnew,10.0.5*%
%TF.CreationDate,2026-10-05T19:40:19+05:30*%
%TF.ProjectId,Full WaveRectfier,46756c6c-2057-4617-9665-526563746669,rev?*%
%TF.SameCoordinates,Original*%
%TF.FileFunction,Copper,L2,Bot*%
%TF.FilePolarity,Positive*%
%FSLAX46Y46*%
G04 Gerber Fmt 4.6, Leading zero omitted, Abs format (unit mm)*
G04 Created by KiCad (PCBNEW 10.0.5) date 2026-10-05 19:40:19*
%MOMM*%
%LPD*%
G01*
G04 APERTURE LIST*
G04 Aperture macros list*
%AMRoundRect*
0 Rectangle with rounded corners*
0 $1 Rounding radius*
0 $2 $3 $4 $5 $6 $7 $8 $9 X,Y pos of 4 corners*
0 Add a 4 corners polygon primitive as box body*
4,1,4,$2,$3,$4,$5,$6,$7,$8,$9,$2,$3,0*
0 Add four circle primitives for the rounded corners*
1,1,$1+$1,$2,$3*
1,1,$1+$1,$4,$5*
1,1,$1+$1,$6,$7*
1,1,$1+$1,$8,$9*
0 Add four rect primitives between the rounded corners*
20,1,$1+$1,$2,$3,$4,$5,0*
20,1,$1+$1,$4,$5,$6,$7,0*
20,1,$1+$1,$6,$7,$8,$9,0*
20,1,$1+$1,$8,$9,$2,$3,0*%
G04 Aperture macros list end*
%TA.AperFunction,ComponentPad*%
%ADD10C,2.400000*%
%TD*%
%TA.AperFunction,ComponentPad*%
%ADD11RoundRect,0.250000X1.050000X-1.050000X1.050000X1.050000X-1.050000X1.050000X-1.050000X-1.050000X0*%
%TD*%
%TA.AperFunction,ComponentPad*%
%ADD12C,2.600000*%
%TD*%
%TA.AperFunction,ComponentPad*%
%ADD13RoundRect,0.249999X-0.850001X-0.850001X0.850001X-0.850001X0.850001X0.850001X-0.850001X0.850001X0*%
%TD*%
%TA.AperFunction,ComponentPad*%
%ADD14C,2.200000*%
%TD*%
%TA.AperFunction,ComponentPad*%
%ADD15R,1.800000X1.800000*%
%TD*%
%TA.AperFunction,ComponentPad*%
%ADD16C,1.800000*%
%TD*%
%TA.AperFunction,ComponentPad*%
%ADD17C,1.600000*%
%TD*%
%TA.AperFunction,ComponentPad*%
%ADD18R,2.200000X2.200000*%
%TD*%
%TA.AperFunction,ComponentPad*%
%ADD19RoundRect,0.250000X-1.050000X1.050000X-1.050000X-1.050000X1.050000X-1.050000X1.050000X1.050000X0*%
%TD*%
%TA.AperFunction,ComponentPad*%
%ADD20R,1.905000X2.000000*%
%TD*%
%TA.AperFunction,ComponentPad*%
%ADD21O,1.905000X2.000000*%
%TD*%
%TA.AperFunction,Conductor*%
%ADD22C,0.500000*%
%TD*%
G04 APERTURE END LIST*
D10*
%TO.P,R1,1*%
%TO.N,Net-(J2-Pin_1)*%
X169800000Y-109820000D03*
%TO.P,R1,2*%
%TO.N,Net-(D3-A)*%
X169800000Y-94580000D03*
%TD*%
D11*
%TO.P,J2,1,Pin_1_1*%
%TO.N,Net-(J2-Pin_1)*%
X183372500Y-110300000D03*
D12*
%TO.P,J2,2,Pin_2_2*%
%TO.N,GND*%
X183372500Y-105300000D03*
%TD*%
D13*
%TO.P,D2,1,K_1*%
%TO.N,Net-(D1-K)*%
X146820000Y-116600000D03*
D14*
%TO.P,D2,2,A_2*%
%TO.N,Net-(D2-A)*%
X156980000Y-116600000D03*
%TD*%
D15*
%TO.P,D3,1,K_1*%
%TO.N,GND*%
X170300000Y-116600000D03*
D16*
%TO.P,D3,2,A_2*%
%TO.N,Net-(D3-A)*%
X172840000Y-116600000D03*
%TD*%
D13*
%TO.P,D1,1,K_1*%
%TO.N,Net-(D1-K)*%
X146820000Y-102500000D03*
D14*
%TO.P,D1,2,A_2*%
%TO.N,Net-(D1-A)*%
X156980000Y-102500000D03*
%TD*%
D17*
%TO.P,C2,1*%
%TO.N,Net-(J2-Pin_1)*%
X161800000Y-115800000D03*
%TO.P,C2,2*%
%TO.N,GND*%
X163800000Y-115800000D03*
%TD*%
%TO.P,C1,1*%
%TO.N,Net-(D1-K)*%
X162000000Y-106100000D03*
%TO.P,C1,2*%
%TO.N,GND*%
X164000000Y-106100000D03*
%TD*%
D18*
%TO.P,T1,1,AA_1*%
%TO.N,Net-(J1-Pin_2)*%
X127512500Y-103362500D03*
D14*
%TO.P,T1,2,AB_2*%
%TO.N,Net-(J1-Pin_1)*%
X127512500Y-116062500D03*
%TO.P,T1,3,SA_3*%
%TO.N,Net-(D2-A)*%
X137512500Y-116062500D03*
%TO.P,T1,4,SB_4*%
%TO.N,Net-(D1-A)*%
X137512500Y-103362500D03*
%TD*%
D19*
%TO.P,J1,1,Pin_1_1*%
%TO.N,Net-(J1-Pin_1)*%
X113027500Y-107100000D03*
D12*
%TO.P,J1,2,Pin_2_2*%
%TO.N,Net-(J1-Pin_2)*%
X113027500Y-112100000D03*
%TD*%
D20*
%TO.P,U1,1,IN_1*%
%TO.N,Net-(D1-K)*%
X149360000Y-110550000D03*
D21*
%TO.P,U1,2,GND_2*%
%TO.N,GND*%
X151900000Y-110550000D03*
%TO.P,U1,3,OUT_3*%
%TO.N,Net-(J2-Pin_1)*%
X154440000Y-110550000D03*
%TD*%
%TO.N,Net-(J2-Pin_1)*%
D22*
X185122500Y-104575126D02*
X185122500Y-108550000D01*
X184097374Y-103550000D02*
X185122500Y-104575126D01*
X185122500Y-108550000D02*
X183372500Y-110300000D01*
X176070000Y-103550000D02*
X184097374Y-103550000D01*
X169800000Y-109820000D02*
X176070000Y-103550000D01*
%TO.N,GND*%
X181600000Y-105300000D02*
X183372500Y-105300000D01*
X170300000Y-116600000D02*
X181600000Y-105300000D01*
%TO.N,Net-(J2-Pin_1)*%
X161800000Y-115800000D02*
X167780000Y-109820000D01*
X167780000Y-109820000D02*
X169800000Y-109820000D01*
%TD*%
%TA.AperFunction,Conductor*%
%TO.N,Net-(D1-A)*%
G36*
X169369328Y-92720185D02*
G01*
X169415083Y-92772989D01*
X169425027Y-92842147D01*
X169396002Y-92905703D01*
X169337224Y-92943477D01*
X169334413Y-92944266D01*
X169252219Y-92966290D01*
X169252209Y-92966293D01*
X169046277Y-93051593D01*
X169046273Y-93051595D01*
X168853226Y-93163052D01*
X168853217Y-93163058D01*
X168676377Y-93298751D01*
X168676370Y-93298757D01*
X168518757Y-93456370D01*
X168518751Y-93456377D01*
X168383058Y-93633217D01*
X168383052Y-93633226D01*
X168271595Y-93826273D01*
X168271593Y-93826277D01*
X168186293Y-94032209D01*
X168186290Y-94032219D01*
X168128597Y-94247534D01*
X168128594Y-94247547D01*
X168099501Y-94468533D01*
X168099500Y-94468549D01*
X168099500Y-94691450D01*
X168099501Y-94691466D01*
X168128594Y-94912452D01*
X168128595Y-94912457D01*
X168128596Y-94912463D01*
X168128597Y-94912465D01*
X168186290Y-95127780D01*
X168186293Y-95127790D01*
X168271593Y-95333722D01*
X168271595Y-95333726D01*
X168383052Y-95526774D01*
X168383057Y-95526780D01*
X168383058Y-95526782D01*
X168518751Y-95703622D01*
X168518757Y-95703629D01*
X168676370Y-95861242D01*
X168676376Y-95861247D01*
X168853226Y-95996948D01*
X169046274Y-96108405D01*
X169252219Y-96193710D01*
X169467537Y-96251404D01*
X169688543Y-96280500D01*
X169688550Y-96280500D01*
X169911450Y-96280500D01*
X169911457Y-96280500D01*
X170132463Y-96251404D01*
X170347781Y-96193710D01*
X170553726Y-96108405D01*
X170746774Y-95996948D01*
X170923624Y-95861247D01*
X171081247Y-95703624D01*
X171216948Y-95526774D01*
X171328405Y-95333726D01*
X171413710Y-95127781D01*
X171471404Y-94912463D01*
X171500500Y-94691457D01*
X171500500Y-94468543D01*
X171471404Y-94247537D01*
X171413710Y-94032219D01*
X171328405Y-93826274D01*
X171216948Y-93633226D01*
X171081247Y-93456376D01*
X171081242Y-93456370D01*
X170923629Y-93298757D01*
X170923622Y-93298751D01*
X170746782Y-93163058D01*
X170746780Y-93163057D01*
X170746774Y-93163052D01*
X170553726Y-93051595D01*
X170553722Y-93051593D01*
X170347790Y-92966293D01*
X170347783Y-92966291D01*
X170347781Y-92966290D01*
X170265616Y-92944274D01*
X170205957Y-92907910D01*
X170175428Y-92845063D01*
X170183723Y-92775688D01*
X170228208Y-92721810D01*
X170294760Y-92700535D01*
X170297711Y-92700500D01*
X188575500Y-92700500D01*
X188642539Y-92720185D01*
X188688294Y-92772989D01*
X188699500Y-92824500D01*
X188699500Y-124875500D01*
X188679815Y-124942539D01*
X188627011Y-124988294D01*
X188575500Y-124999500D01*
X108024500Y-124999500D01*
X107957461Y-124979815D01*
X107911706Y-124927011D01*
X107900500Y-124875500D01*
X107900500Y-115936538D01*
X125912000Y-115936538D01*
X125912000Y-116188461D01*
X125951410Y-116437285D01*
X126029260Y-116676883D01*
X126143632Y-116901348D01*
X126291701Y-117105149D01*
X126291705Y-117105154D01*
X126469845Y-117283294D01*
X126469850Y-117283298D01*
X126647617Y-117412452D01*
X126673655Y-117431370D01*
X126816684Y-117504247D01*
X126898116Y-117545739D01*
X126898118Y-117545739D01*
X126898121Y-117545741D01*
X127137715Y-117623590D01*
X127386538Y-117663000D01*
X127386539Y-117663000D01*
X127638461Y-117663000D01*
X127638462Y-117663000D01*
X127887285Y-117623590D01*
X128126879Y-117545741D01*
X128351345Y-117431370D01*
X128555156Y-117283293D01*
X128733293Y-117105156D01*
X128881370Y-116901345D01*
X128995741Y-116676879D01*
X129073590Y-116437285D01*
X129113000Y-116188462D01*
X129113000Y-115936538D01*
X135912000Y-115936538D01*
X135912000Y-116188461D01*
X135951410Y-116437285D01*
X136029260Y-116676883D01*
X136143632Y-116901348D01*
X136291701Y-117105149D01*
X136291705Y-117105154D01*
X136469845Y-117283294D01*
X136469850Y-117283298D01*
X136647617Y-117412452D01*
X136673655Y-117431370D01*
X136816684Y-117504247D01*
X136898116Y-117545739D01*
X136898118Y-117545739D01*
X136898121Y-117545741D01*
X137137715Y-117623590D01*
X137386538Y-117663000D01*
X137386539Y-117663000D01*
X137638461Y-117663000D01*
X137638462Y-117663000D01*
X137887285Y-117623590D01*
X138126879Y-117545741D01*
X138351345Y-117431370D01*
X138555156Y-117283293D01*
X138733293Y-117105156D01*
X138881370Y-116901345D01*
X138995741Y-116676879D01*
X139073590Y-116437285D01*
X139113000Y-116188462D01*
X139113000Y-115936538D01*
X139078107Y-115716231D01*
X139075533Y-115699982D01*
X145219500Y-115699982D01*
X145219500Y-117500017D01*
X145230000Y-117602796D01*
X145276236Y-117742326D01*
X145285186Y-117769335D01*
X145377288Y-117918656D01*
X145501344Y-118042712D01*
X145650665Y-118134814D01*
X145817202Y-118189999D01*
X145919990Y-118200500D01*
X145919995Y-118200500D01*
X147720005Y-118200500D01*
X147720010Y-118200500D01*
X147822798Y-118189999D01*
X147989335Y-118134814D01*
X148138656Y-118042712D01*
X148262712Y-117918656D01*
X148354814Y-117769335D01*
X148409999Y-117602798D01*
X148420500Y-117500010D01*
X148420500Y-116474038D01*
X155379500Y-116474038D01*
X155379500Y-116725961D01*
X155418910Y-116974785D01*
X155496760Y-117214383D01*
X155575413Y-117368747D01*
X155607321Y-117431370D01*
X155611132Y-117438848D01*
X155759201Y-117642649D01*
X155759205Y-117642654D01*
X155937345Y-117820794D01*
X155937350Y-117820798D01*
X156106645Y-117943797D01*
X156141155Y-117968870D01*
X156284184Y-118041747D01*
X156365616Y-118083239D01*
X156365618Y-118083239D01*
X156365621Y-118083241D01*
X156605215Y-118161090D01*
X156854038Y-118200500D01*
X156854039Y-118200500D01*
X157105961Y-118200500D01*
X157105962Y-118200500D01*
X157354785Y-118161090D01*
X157594379Y-118083241D01*
X157818845Y-117968870D01*
X158022656Y-117820793D01*
X158200793Y-117642656D01*
X158348870Y-117438845D01*
X158463241Y-117214379D01*
X158541090Y-116974785D01*
X158580500Y-116725962D01*
X158580500Y-116474038D01*
X158541090Y-116225215D01*
X158463241Y-115985621D01*
X158463239Y-115985618D01*
X158463239Y-115985616D01*
X158348870Y-115761155D01*
X158348864Y-115761146D01*
X158302730Y-115697648D01*
X160499500Y-115697648D01*
X160499500Y-115902351D01*
X160531522Y-116104534D01*
X160594781Y-116299223D01*
X160687715Y-116481613D01*
X160808028Y-116647213D01*
X160952786Y-116791971D01*
X161103334Y-116901348D01*
X161118390Y-116912287D01*
X161234607Y-116971503D01*
X161300776Y-117005218D01*
X161300778Y-117005218D01*
X161300781Y-117005220D01*
X161405137Y-117039127D01*
X161495465Y-117068477D01*
X161596557Y-117084488D01*
X161697648Y-117100500D01*
X161697649Y-117100500D01*
X161902351Y-117100500D01*
X161902352Y-117100500D01*
X162104534Y-117068477D01*
X162299219Y-117005220D01*
X162481610Y-116912287D01*
X162574590Y-116844732D01*
X162647213Y-116791971D01*
X162647215Y-116791968D01*
X162647219Y-116791966D01*
X162712319Y-116726866D01*
X162773642Y-116693381D01*
X162843334Y-116698365D01*
X162887681Y-116726866D01*
X162952786Y-116791971D01*
X163103334Y-116901348D01*
X163118390Y-116912287D01*
X163234607Y-116971503D01*
X163300776Y-117005218D01*
X163300778Y-117005218D01*
X163300781Y-117005220D01*
X163405137Y-117039127D01*
X163495465Y-117068477D01*
X163596557Y-117084488D01*
X163697648Y-117100500D01*
X163697649Y-117100500D01*
X163902351Y-117100500D01*
X163902352Y-117100500D01*
X164104534Y-117068477D01*
X164299219Y-117005220D01*
X164481610Y-116912287D01*
X164574590Y-116844732D01*
X164647213Y-116791971D01*
X164647215Y-116791968D01*
X164647219Y-116791966D01*
X164791966Y-116647219D01*
X164791968Y-116647215D01*
X164791971Y-116647213D01*
X164844732Y-116574590D01*
X164912287Y-116481610D01*
X165005220Y-116299219D01*
X165068477Y-116104534D01*
X165100500Y-115902352D01*
X165100500Y-115697648D01*
X165068477Y-115495466D01*
X165056194Y-115457664D01*
X165030702Y-115379207D01*
X165005220Y-115300781D01*
X165005218Y-115300778D01*
X165005218Y-115300776D01*
X164956880Y-115205909D01*
X164912287Y-115118390D01*
X164873633Y-115065187D01*
X164791971Y-114952786D01*
X164647213Y-114808028D01*
X164481613Y-114687715D01*
X164481612Y-114687714D01*
X164481610Y-114687713D01*
X164299219Y-114594780D01*
X164297178Y-114593740D01*
X164246382Y-114545765D01*
X164229587Y-114477944D01*
X164252124Y-114411809D01*
X164265786Y-114395580D01*
X168054548Y-110606819D01*
X168115871Y-110573334D01*
X168142229Y-110570500D01*
X168198141Y-110570500D01*
X168265180Y-110590185D01*
X168305527Y-110632498D01*
X168383052Y-110766774D01*
X168383057Y-110766780D01*
X168383058Y-110766782D01*
X168518751Y-110943622D01*
X168518757Y-110943629D01*
X168676370Y-111101242D01*
X168676376Y-111101247D01*
X168853226Y-111236948D01*
X169046274Y-111348405D01*
X169252219Y-111433710D01*
X169467537Y-111491404D01*
X169688543Y-111520500D01*
X169688550Y-111520500D01*
X169911450Y-111520500D01*
X169911457Y-111520500D01*
X170132463Y-111491404D01*
X170347781Y-111433710D01*
X170553726Y-111348405D01*
X170746774Y-111236948D01*
X170923624Y-111101247D01*
X171081247Y-110943624D01*
X171216948Y-110766774D01*
X171328405Y-110573726D01*
X171413710Y-110367781D01*
X171471404Y-110152463D01*
X171500500Y-109931457D01*
X171500500Y-109708543D01*
X171471404Y-109487537D01*
X171431274Y-109337769D01*
X171432937Y-109267923D01*
X171463366Y-109218000D01*
X176344549Y-104336819D01*
X176405872Y-104303334D01*
X176432230Y-104300500D01*
X181655750Y-104300500D01*
X181722789Y-104320185D01*
X181768544Y-104372989D01*
X181778488Y-104442147D01*
X181763107Y-104486552D01*
X181762529Y-104487552D01*
X181711938Y-104535743D01*
X181655172Y-104549500D01*
X181526080Y-104549500D01*
X181381092Y-104578340D01*
X181381082Y-104578343D01*
X181244511Y-104634912D01*
X181244498Y-104634919D01*
X181121584Y-104717048D01*
X181121580Y-104717051D01*
X170675449Y-115163181D01*
X170614126Y-115196666D01*
X170587768Y-115199500D01*
X169352129Y-115199500D01*
X169352123Y-115199501D01*
X169292516Y-115205908D01*
X169157671Y-115256202D01*
X169157664Y-115256206D01*
X169042455Y-115342452D01*
X169042452Y-115342455D01*
X168956206Y-115457664D01*
X168956202Y-115457671D01*
X168905908Y-115592517D01*
X168899501Y-115652116D01*
X168899500Y-115652135D01*
X168899500Y-117547870D01*
X168899501Y-117547876D01*
X168905908Y-117607483D01*
X168956202Y-117742328D01*
X168956206Y-117742335D01*
X169042452Y-117857544D01*
X169042455Y-117857547D01*
X169157664Y-117943793D01*
X169157671Y-117943797D01*
X169292517Y-117994091D01*
X169292516Y-117994091D01*
X169299444Y-117994835D01*
X169352127Y-118000500D01*
X171247872Y-118000499D01*
X171307483Y-117994091D01*
X171442331Y-117943796D01*
X171557546Y-117857546D01*
X171643796Y-117742331D01*
X171671429Y-117668243D01*
X171673601Y-117662420D01*
X171715471Y-117606486D01*
X171780936Y-117582068D01*
X171849209Y-117596919D01*
X171877464Y-117618071D01*
X171927636Y-117668243D01*
X171927641Y-117668247D01*
X172029603Y-117742326D01*
X172105978Y-117797815D01*
X172234375Y-117863237D01*
X172302393Y-117897895D01*
X172302396Y-117897896D01*
X172407221Y-117931955D01*
X172512049Y-117966015D01*
X172729778Y-118000500D01*
X172729779Y-118000500D01*
X172950221Y-118000500D01*
X172950222Y-118000500D01*
X173167951Y-117966015D01*
X173377606Y-117897895D01*
X173574022Y-117797815D01*
X173752365Y-117668242D01*
X173908242Y-117512365D01*
X174037815Y-117334022D01*
X174137895Y-117137606D01*
X174206015Y-116927951D01*
X174240500Y-116710222D01*
X174240500Y-116489778D01*
X174206015Y-116272049D01*
X174137895Y-116062394D01*
X174137895Y-116062393D01*
X174073767Y-115936538D01*
X174037815Y-115865978D01*
X173961657Y-115761155D01*
X173908247Y-115687641D01*
X173908243Y-115687636D01*
X173752363Y-115531756D01*
X173752358Y-115531752D01*
X173574025Y-115402187D01*
X173574024Y-115402186D01*
X173574022Y-115402185D01*
X173456791Y-115342452D01*
X173377606Y-115302104D01*
X173377603Y-115302103D01*
X173167952Y-115233984D01*
X173027987Y-115211816D01*
X172964852Y-115181886D01*
X172927921Y-115122575D01*
X172928919Y-115052712D01*
X172959701Y-115001666D01*
X181679948Y-106281417D01*
X181741269Y-106247934D01*
X181810961Y-106252918D01*
X181866894Y-106294790D01*
X181870725Y-106300203D01*
X181872225Y-106302448D01*
X182015906Y-106489697D01*
X182015912Y-106489704D01*
X182182795Y-106656587D01*
X182182801Y-106656592D01*
X182370050Y-106800273D01*
X182501418Y-106876118D01*
X182574443Y-106918280D01*
X182574448Y-106918282D01*
X182574451Y-106918284D01*
X182792507Y-107008606D01*
X183020486Y-107069693D01*
X183254489Y-107100500D01*
X183254496Y-107100500D01*
X183490504Y-107100500D01*
X183490511Y-107100500D01*
X183724514Y-107069693D01*
X183952493Y-107008606D01*
X184170549Y-106918284D01*
X184185997Y-106909364D01*
X184253895Y-106892890D01*
X184319923Y-106915740D01*
X184363116Y-106970659D01*
X184372000Y-107016750D01*
X184372000Y-108187769D01*
X184352315Y-108254808D01*
X184335681Y-108275450D01*
X184147950Y-108463181D01*
X184086627Y-108496666D01*
X184060269Y-108499500D01*
X182272498Y-108499500D01*
X182272481Y-108499501D01*
X182169703Y-108510000D01*
X182169700Y-108510001D01*
X182003168Y-108565185D01*
X182003163Y-108565187D01*
X181853842Y-108657289D01*
X181729789Y-108781342D01*
X181637687Y-108930663D01*
X181637686Y-108930666D01*
X181582501Y-109097203D01*
X181582501Y-109097204D01*
X181582500Y-109097204D01*
X181572000Y-109199983D01*
X181572000Y-111400001D01*
X181572001Y-111400018D01*
X181582500Y-111502796D01*
X181582501Y-111502799D01*
X181637685Y-111669331D01*
X181637687Y-111669336D01*
X181655958Y-111698958D01*
X181729788Y-111818656D01*
X181853844Y-111942712D01*
X182003166Y-112034814D01*
X182169703Y-112089999D01*
X182272491Y-112100500D01*
X184472508Y-112100499D01*
X184575297Y-112089999D01*
X184741834Y-112034814D01*
X184891156Y-111942712D01*
X185015212Y-111818656D01*
X185107314Y-111669334D01*
X185162499Y-111502797D01*
X185173000Y-111400009D01*
X185172999Y-109612229D01*
X185192684Y-109545191D01*
X185209318Y-109524549D01*
X185705447Y-109028421D01*
X185705448Y-109028420D01*
X185705448Y-109028419D01*
X185705452Y-109028416D01*
X185770765Y-108930666D01*
X185787584Y-108905495D01*
X185839009Y-108781344D01*
X185844159Y-108768912D01*
X185873000Y-108623917D01*
X185873000Y-108476082D01*
X185873000Y-104501208D01*
X185873000Y-104501205D01*
X185844159Y-104356218D01*
X185844158Y-104356217D01*
X185844158Y-104356213D01*
X185821081Y-104300500D01*
X185787587Y-104219637D01*
X185787580Y-104219624D01*
X185705452Y-104096711D01*
X185669343Y-104060602D01*
X185600916Y-103992175D01*
X185345910Y-103737169D01*
X184575795Y-102967052D01*
X184575788Y-102967046D01*
X184502103Y-102917812D01*
X184502103Y-102917813D01*
X184452865Y-102884913D01*
X184316291Y-102828343D01*
X184316281Y-102828340D01*
X184171294Y-102799500D01*
X184171292Y-102799500D01*
X175996082Y-102799500D01*
X175996080Y-102799500D01*
X175851092Y-102828340D01*
X175851086Y-102828342D01*
X175714508Y-102884914D01*
X175714496Y-102884921D01*
X175665269Y-102917813D01*
X175591588Y-102967044D01*
X175591580Y-102967050D01*
X170402000Y-108156630D01*
X170340677Y-108190115D01*
X170282227Y-108188724D01*
X170162446Y-108156630D01*
X170132463Y-108148596D01*
X170132457Y-108148595D01*
X170132452Y-108148594D01*
X169911466Y-108119501D01*
X169911463Y-108119500D01*
X169911457Y-108119500D01*
X169688543Y-108119500D01*
X169688537Y-108119500D01*
X169688533Y-108119501D01*
X169467547Y-108148594D01*
X169467540Y-108148595D01*
X169467537Y-108148596D01*
X169467530Y-108148598D01*
X169252219Y-108206290D01*
X169252209Y-108206293D01*
X169046277Y-108291593D01*
X169046273Y-108291595D01*
X168853226Y-108403052D01*
X168853217Y-108403058D01*
X168676377Y-108538751D01*
X168676370Y-108538757D01*
X168518757Y-108696370D01*
X168518751Y-108696377D01*
X168383058Y-108873217D01*
X168383052Y-108873226D01*
X168305528Y-109007501D01*
X168254961Y-109055716D01*
X168198141Y-109069500D01*
X167706080Y-109069500D01*
X167561092Y-109098340D01*
X167561082Y-109098343D01*
X167424511Y-109154912D01*
X167424499Y-109154919D01*
X167357044Y-109199992D01*
X167357043Y-109199993D01*
X167301581Y-109237050D01*
X162065105Y-114473526D01*
X162003782Y-114507011D01*
X161958026Y-114508318D01*
X161902352Y-114499500D01*
X161697648Y-114499500D01*
X161685589Y-114501410D01*
X161495465Y-114531522D01*
X161300776Y-114594781D01*
X161118386Y-114687715D01*
X160952786Y-114808028D01*
X160808028Y-114952786D01*
X160687715Y-115118386D01*
X160594781Y-115300776D01*
X160531522Y-115495465D01*
X160499500Y-115697648D01*
X158302730Y-115697648D01*
X158200798Y-115557350D01*
X158200794Y-115557345D01*
X158022654Y-115379205D01*
X158022649Y-115379201D01*
X157818848Y-115231132D01*
X157818847Y-115231131D01*
X157818845Y-115231130D01*
X157722198Y-115181886D01*
X157594383Y-115116760D01*
X157354785Y-115038910D01*
X157105962Y-114999500D01*
X156854038Y-114999500D01*
X156787738Y-115010001D01*
X156605214Y-115038910D01*
X156365616Y-115116760D01*
X156141151Y-115231132D01*
X155937350Y-115379201D01*
X155937345Y-115379205D01*
X155759205Y-115557345D01*
X155759201Y-115557350D01*
X155611132Y-115761151D01*
X155496760Y-115985616D01*
X155418910Y-116225214D01*
X155379500Y-116474038D01*
X148420500Y-116474038D01*
X148420500Y-115699990D01*
X148409999Y-115597202D01*
X148354814Y-115430665D01*
X148262712Y-115281344D01*
X148138656Y-115157288D01*
X147989335Y-115065186D01*
X147822798Y-115010001D01*
X147822796Y-115010000D01*
X147720017Y-114999500D01*
X147720010Y-114999500D01*
X145919990Y-114999500D01*
X145919982Y-114999500D01*
X145817203Y-115010000D01*
X145817202Y-115010001D01*
X145787498Y-115019844D01*
X145650667Y-115065185D01*
X145650662Y-115065187D01*
X145501342Y-115157289D01*
X145377289Y-115281342D01*
X145285187Y-115430662D01*
X145285185Y-115430667D01*
X145276239Y-115457664D01*
X145230001Y-115597202D01*
X145230001Y-115597203D01*
X145230000Y-115597203D01*
X145219500Y-115699982D01*
X139075533Y-115699982D01*
X139075163Y-115697648D01*
X139073590Y-115687715D01*
X138995741Y-115448121D01*
X138995739Y-115448118D01*
X138995739Y-115448116D01*
X138954247Y-115366684D01*
X138881370Y-115223655D01*
X138837433Y-115163181D01*
X138733298Y-115019850D01*
X138733294Y-115019845D01*
X138555154Y-114841705D01*
X138555149Y-114841701D01*
X138351348Y-114693632D01*
X138351347Y-114693631D01*
X138351345Y-114693630D01*
X138281247Y-114657913D01*
X138126883Y-114579260D01*
X137887285Y-114501410D01*
X137875226Y-114499500D01*
X137638462Y-114462000D01*
X137386538Y-114462000D01*
X137262126Y-114481705D01*
X137137714Y-114501410D01*
X136898116Y-114579260D01*
X136673651Y-114693632D01*
X136469850Y-114841701D01*
X136469845Y-114841705D01*
X136291705Y-115019845D01*
X136291701Y-115019850D01*
X136143632Y-115223651D01*
X136029260Y-115448116D01*
X135951410Y-115687714D01*
X135912000Y-115936538D01*
X129113000Y-115936538D01*
X129073590Y-115687715D01*
X128995741Y-115448121D01*
X128995739Y-115448118D01*
X128995739Y-115448116D01*
X128954247Y-115366684D01*
X128881370Y-115223655D01*
X128837433Y-115163181D01*
X128733298Y-115019850D01*
X128733294Y-115019845D01*
X128555154Y-114841705D01*
X128555149Y-114841701D01*
X128351348Y-114693632D01*
X128351347Y-114693631D01*
X128351345Y-114693630D01*
X128281247Y-114657913D01*
X128126883Y-114579260D01*
X127887285Y-114501410D01*
X127875226Y-114499500D01*
X127638462Y-114462000D01*
X127386538Y-114462000D01*
X127262126Y-114481705D01*
X127137714Y-114501410D01*
X126898116Y-114579260D01*
X126673651Y-114693632D01*
X126469850Y-114841701D01*
X126469845Y-114841705D01*
X126291705Y-115019845D01*
X126291701Y-115019850D01*
X126143632Y-115223651D01*
X126029260Y-115448116D01*
X125951410Y-115687714D01*
X125912000Y-115936538D01*
X107900500Y-115936538D01*
X107900500Y-111981995D01*
X111227000Y-111981995D01*
X111227000Y-112218004D01*
X111227001Y-112218020D01*
X111257806Y-112452010D01*
X111318894Y-112679993D01*
X111409214Y-112898045D01*
X111409219Y-112898056D01*
X111480177Y-113020957D01*
X111527227Y-113102450D01*
X111527229Y-113102453D01*
X111527230Y-113102454D01*
X111670906Y-113289697D01*
X111670912Y-113289704D01*
X111837795Y-113456587D01*
X111837801Y-113456592D01*
X112025050Y-113600273D01*
X112156418Y-113676118D01*
X112229443Y-113718280D01*
X112229448Y-113718282D01*
X112229451Y-113718284D01*
X112447507Y-113808606D01*
X112675486Y-113869693D01*
X112909489Y-113900500D01*
X112909496Y-113900500D01*
X113145504Y-113900500D01*
X113145511Y-113900500D01*
X113379514Y-113869693D01*
X113607493Y-113808606D01*
X113825549Y-113718284D01*
X114029950Y-113600273D01*
X114217199Y-113456592D01*
X114384092Y-113289699D01*
X114527773Y-113102450D01*
X114645784Y-112898049D01*
X114736106Y-112679993D01*
X114797193Y-112452014D01*
X114828000Y-112218011D01*
X114828000Y-111981989D01*
X114797193Y-111747986D01*
X114736106Y-111520007D01*
X114645784Y-111301951D01*
X114645782Y-111301948D01*
X114645780Y-111301943D01*
X114603618Y-111228918D01*
X114527773Y-111097550D01*
X114468501Y-111020306D01*
X114384093Y-110910302D01*
X114384087Y-110910295D01*
X114217204Y-110743412D01*
X114217197Y-110743406D01*
X114029954Y-110599730D01*
X114029953Y-110599729D01*
X114029950Y-110599727D01*
X113948457Y-110552677D01*
X113825556Y-110481719D01*
X113825545Y-110481714D01*
X113607493Y-110391394D01*
X113379510Y-110330306D01*
X113145520Y-110299501D01*
X113145517Y-110299500D01*
X113145511Y-110299500D01*
X112909489Y-110299500D01*
X112909483Y-110299500D01*
X112909479Y-110299501D01*
X112675489Y-110330306D01*
X112447506Y-110391394D01*
X112229454Y-110481714D01*
X112229443Y-110481719D01*
X112025045Y-110599730D01*
X111837802Y-110743406D01*
X111837795Y-110743412D01*
X111670912Y-110910295D01*
X111670906Y-110910302D01*
X111527230Y-111097545D01*
X111527227Y-111097549D01*
X111527227Y-111097550D01*
X111525093Y-111101247D01*
X111409219Y-111301943D01*
X111409214Y-111301954D01*
X111318894Y-111520006D01*
X111257806Y-111747989D01*
X111227001Y-111981979D01*
X111227000Y-111981995D01*
X107900500Y-111981995D01*
X107900500Y-109502135D01*
X147907000Y-109502135D01*
X147907000Y-111597870D01*
X147907001Y-111597876D01*
X147913408Y-111657483D01*
X147963702Y-111792328D01*
X147963706Y-111792335D01*
X148049952Y-111907544D01*
X148049955Y-111907547D01*
X148165164Y-111993793D01*
X148165171Y-111993797D01*
X148300017Y-112044091D01*
X148300016Y-112044091D01*
X148306944Y-112044835D01*
X148359627Y-112050500D01*
X150360372Y-112050499D01*
X150419983Y-112044091D01*
X150554831Y-111993796D01*
X150670046Y-111907546D01*
X150756296Y-111792331D01*
X150766690Y-111764460D01*
X150808560Y-111708527D01*
X150874023Y-111684108D01*
X150942297Y-111698958D01*
X150955746Y-111707465D01*
X151138462Y-111840217D01*
X151270599Y-111907544D01*
X151342244Y-111944049D01*
X151559751Y-112014721D01*
X151559752Y-112014721D01*
X151559755Y-112014722D01*
X151785646Y-112050500D01*
X151785647Y-112050500D01*
X152014353Y-112050500D01*
X152014354Y-112050500D01*
X152240245Y-112014722D01*
X152240248Y-112014721D01*
X152240249Y-112014721D01*
X152457755Y-111944049D01*
X152457755Y-111944048D01*
X152457758Y-111944048D01*
X152661538Y-111840217D01*
X152846566Y-111705786D01*
X153008286Y-111544066D01*
X153069683Y-111459559D01*
X153125012Y-111416896D01*
X153194625Y-111410917D01*
X153256420Y-111443523D01*
X153270314Y-111459556D01*
X153331714Y-111544066D01*
X153493434Y-111705786D01*
X153678462Y-111840217D01*
X153810599Y-111907544D01*
X153882244Y-111944049D01*
X154099751Y-112014721D01*
X154099752Y-112014721D01*
X154099755Y-112014722D01*
X154325646Y-112050500D01*
X154325647Y-112050500D01*
X154554353Y-112050500D01*
X154554354Y-112050500D01*
X154780245Y-112014722D01*
X154780248Y-112014721D01*
X154780249Y-112014721D01*
X154997755Y-111944049D01*
X154997755Y-111944048D01*
X154997758Y-111944048D01*
X155201538Y-111840217D01*
X155386566Y-111705786D01*
X155548286Y-111544066D01*
X155682717Y-111359038D01*
X155786548Y-111155258D01*
X155855312Y-110943624D01*
X155857221Y-110937749D01*
X155857221Y-110937748D01*
X155857222Y-110937745D01*
X155893000Y-110711854D01*
X155893000Y-110388146D01*
X155857222Y-110162255D01*
X155857221Y-110162251D01*
X155857221Y-110162250D01*
X155786549Y-109944744D01*
X155786548Y-109944742D01*
X155682717Y-109740962D01*
X155548286Y-109555934D01*
X155386566Y-109394214D01*
X155201538Y-109259783D01*
X155156920Y-109237049D01*
X154997755Y-109155950D01*
X154780248Y-109085278D01*
X154593600Y-109055716D01*
X154554354Y-109049500D01*
X154325646Y-109049500D01*
X154285188Y-109055908D01*
X154099753Y-109085278D01*
X154099750Y-109085278D01*
X153882244Y-109155950D01*
X153678461Y-109259783D01*
X153612550Y-109307671D01*
X153493434Y-109394214D01*
X153493432Y-109394216D01*
X153493431Y-109394216D01*
X153331715Y-109555932D01*
X153270318Y-109640438D01*
X153214987Y-109683103D01*
X153145374Y-109689082D01*
X153083579Y-109656476D01*
X153069682Y-109640438D01*
X153058773Y-109625423D01*
X153008286Y-109555934D01*
X152846566Y-109394214D01*
X152661538Y-109259783D01*
X152616920Y-109237049D01*
X152457755Y-109155950D01*
X152240248Y-109085278D01*
X152053600Y-109055716D01*
X152014354Y-109049500D01*
X151785646Y-109049500D01*
X151745188Y-109055908D01*
X151559753Y-109085278D01*
X151559750Y-109085278D01*
X151342244Y-109155950D01*
X151138461Y-109259783D01*
X150955759Y-109392525D01*
X150889952Y-109416005D01*
X150821898Y-109400180D01*
X150773203Y-109350074D01*
X150766690Y-109335538D01*
X150756296Y-109307669D01*
X150756293Y-109307664D01*
X150670047Y-109192455D01*
X150670044Y-109192452D01*
X150554835Y-109106206D01*
X150554828Y-109106202D01*
X150419982Y-109055908D01*
X150419983Y-109055908D01*
X150360383Y-109049501D01*
X150360381Y-109049500D01*
X150360373Y-109049500D01*
X150360364Y-109049500D01*
X148359629Y-109049500D01*
X148359623Y-109049501D01*
X148300016Y-109055908D01*
X148165171Y-109106202D01*
X148165164Y-109106206D01*
X148049955Y-109192452D01*
X148049952Y-109192455D01*
X147963706Y-109307664D01*
X147963702Y-109307671D01*
X147913408Y-109442517D01*
X147907001Y-109502116D01*
X147907000Y-109502135D01*
X107900500Y-109502135D01*
X107900500Y-105999983D01*
X111227000Y-105999983D01*
X111227000Y-108200001D01*
X111227001Y-108200018D01*
X111237500Y-108302796D01*
X111237501Y-108302799D01*
X111270722Y-108403052D01*
X111292686Y-108469334D01*
X111384788Y-108618656D01*
X111508844Y-108742712D01*
X111658166Y-108834814D01*
X111824703Y-108889999D01*
X111927491Y-108900500D01*
X114127508Y-108900499D01*
X114230297Y-108889999D01*
X114396834Y-108834814D01*
X114546156Y-108742712D01*
X114670212Y-108618656D01*
X114762314Y-108469334D01*
X114817499Y-108302797D01*
X114828000Y-108200009D01*
X114827999Y-105999992D01*
X114827760Y-105997648D01*
X160699500Y-105997648D01*
X160699500Y-106202351D01*
X160731522Y-106404534D01*
X160794781Y-106599223D01*
X160887715Y-106781613D01*
X161008028Y-106947213D01*
X161152786Y-107091971D01*
X161307749Y-107204556D01*
X161318390Y-107212287D01*
X161434607Y-107271503D01*
X161500776Y-107305218D01*
X161500778Y-107305218D01*
X161500781Y-107305220D01*
X161605137Y-107339127D01*
X161695465Y-107368477D01*
X161796557Y-107384488D01*
X161897648Y-107400500D01*
X161897649Y-107400500D01*
X162102351Y-107400500D01*
X162102352Y-107400500D01*
X162304534Y-107368477D01*
X162499219Y-107305220D01*
X162681610Y-107212287D01*
X162774590Y-107144732D01*
X162847213Y-107091971D01*
X162847215Y-107091968D01*
X162847219Y-107091966D01*
X162912319Y-107026866D01*
X162973642Y-106993381D01*
X163043334Y-106998365D01*
X163087681Y-107026866D01*
X163152786Y-107091971D01*
X163307749Y-107204556D01*
X163318390Y-107212287D01*
X163434607Y-107271503D01*
X163500776Y-107305218D01*
X163500778Y-107305218D01*
X163500781Y-107305220D01*
X163605137Y-107339127D01*
X163695465Y-107368477D01*
X163796557Y-107384488D01*
X163897648Y-107400500D01*
X163897649Y-107400500D01*
X164102351Y-107400500D01*
X164102352Y-107400500D01*
X164304534Y-107368477D01*
X164499219Y-107305220D01*
X164681610Y-107212287D01*
X164774590Y-107144732D01*
X164847213Y-107091971D01*
X164847215Y-107091968D01*
X164847219Y-107091966D01*
X164991966Y-106947219D01*
X164991968Y-106947215D01*
X164991971Y-106947213D01*
X165097490Y-106801976D01*
X165112287Y-106781610D01*
X165205220Y-106599219D01*
X165268477Y-106404534D01*
X165300500Y-106202352D01*
X165300500Y-105997648D01*
X165268477Y-105795466D01*
X165205220Y-105600781D01*
X165205218Y-105600778D01*
X165205218Y-105600776D01*
X165171503Y-105534607D01*
X165112287Y-105418390D01*
X165073633Y-105365187D01*
X164991971Y-105252786D01*
X164847213Y-105108028D01*
X164681613Y-104987715D01*
X164681612Y-104987714D01*
X164681610Y-104987713D01*
X164620530Y-104956591D01*
X164499223Y-104894781D01*
X164304534Y-104831522D01*
X164129995Y-104803878D01*
X164102352Y-104799500D01*
X163897648Y-104799500D01*
X163873329Y-104803351D01*
X163695465Y-104831522D01*
X163500776Y-104894781D01*
X163318386Y-104987715D01*
X163152786Y-105108028D01*
X163152782Y-105108032D01*
X163087681Y-105173134D01*
X163026358Y-105206619D01*
X162956666Y-105201635D01*
X162912319Y-105173134D01*
X162847213Y-105108028D01*
X162681613Y-104987715D01*
X162681612Y-104987714D01*
X162681610Y-104987713D01*
X162620530Y-104956591D01*
X162499223Y-104894781D01*
X162304534Y-104831522D01*
X162129995Y-104803878D01*
X162102352Y-104799500D01*
X161897648Y-104799500D01*
X161873329Y-104803351D01*
X161695465Y-104831522D01*
X161500776Y-104894781D01*
X161318386Y-104987715D01*
X161152786Y-105108028D01*
X161008028Y-105252786D01*
X160887715Y-105418386D01*
X160794781Y-105600776D01*
X160731522Y-105795465D01*
X160699500Y-105997648D01*
X114827760Y-105997648D01*
X114817499Y-105897203D01*
X114762314Y-105730666D01*
X114670212Y-105581344D01*
X114546156Y-105457288D01*
X114396834Y-105365186D01*
X114230297Y-105310001D01*
X114230295Y-105310000D01*
X114127510Y-105299500D01*
X111927498Y-105299500D01*
X111927481Y-105299501D01*
X111824703Y-105310000D01*
X111824700Y-105310001D01*
X111658168Y-105365185D01*
X111658163Y-105365187D01*
X111508842Y-105457289D01*
X111384789Y-105581342D01*
X111292687Y-105730663D01*
X111292686Y-105730666D01*
X111237501Y-105897203D01*
X111237501Y-105897204D01*
X111237500Y-105897204D01*
X111227000Y-105999983D01*
X107900500Y-105999983D01*
X107900500Y-102214635D01*
X125912000Y-102214635D01*
X125912000Y-104510370D01*
X125912001Y-104510376D01*
X125918408Y-104569983D01*
X125968702Y-104704828D01*
X125968706Y-104704835D01*
X126054952Y-104820044D01*
X126054955Y-104820047D01*
X126170164Y-104906293D01*
X126170171Y-104906297D01*
X126305017Y-104956591D01*
X126305016Y-104956591D01*
X126311944Y-104957335D01*
X126364627Y-104963000D01*
X128660372Y-104962999D01*
X128719983Y-104956591D01*
X128854831Y-104906296D01*
X128970046Y-104820046D01*
X129056296Y-104704831D01*
X129106591Y-104569983D01*
X129113000Y-104510373D01*
X129112999Y-103236571D01*
X135912500Y-103236571D01*
X135912500Y-103488428D01*
X135951897Y-103737169D01*
X136029719Y-103976684D01*
X136144057Y-104201083D01*
X136218248Y-104303197D01*
X136218248Y-104303198D01*
X136947887Y-103573559D01*
X136953389Y-103594091D01*
X137032381Y-103730908D01*
X137144092Y-103842619D01*
X137280909Y-103921611D01*
X137301440Y-103927112D01*
X136571800Y-104656750D01*
X136673916Y-104730942D01*
X136898315Y-104845280D01*
X137137830Y-104923102D01*
X137386572Y-104962500D01*
X137638428Y-104962500D01*
X137887169Y-104923102D01*
X138126684Y-104845280D01*
X138351075Y-104730946D01*
X138351081Y-104730942D01*
X138453197Y-104656750D01*
X138453198Y-104656750D01*
X137723559Y-103927112D01*
X137744091Y-103921611D01*
X137880908Y-103842619D01*
X137992619Y-103730908D01*
X138071611Y-103594091D01*
X138077112Y-103573559D01*
X138806750Y-104303198D01*
X138806750Y-104303197D01*
X138880942Y-104201081D01*
X138880946Y-104201075D01*
X138995280Y-103976684D01*
X139073102Y-103737169D01*
X139112500Y-103488428D01*
X139112500Y-103236571D01*
X139073102Y-102987830D01*
X138995280Y-102748315D01*
X138880942Y-102523916D01*
X138806750Y-102421801D01*
X138806750Y-102421800D01*
X138077112Y-103151439D01*
X138071611Y-103130909D01*
X137992619Y-102994092D01*
X137880908Y-102882381D01*
X137744091Y-102803389D01*
X137723558Y-102797887D01*
X138453198Y-102068248D01*
X138351083Y-101994057D01*
X138126684Y-101879719D01*
X137887169Y-101801897D01*
X137638428Y-101762500D01*
X137386572Y-101762500D01*
X137137830Y-101801897D01*
X136898315Y-101879719D01*
X136673913Y-101994059D01*
X136571801Y-102068247D01*
X136571800Y-102068248D01*
X137301440Y-102797887D01*
X137280909Y-102803389D01*
X137144092Y-102882381D01*
X137032381Y-102994092D01*
X136953389Y-103130909D01*
X136947887Y-103151440D01*
X136218248Y-102421800D01*
X136218247Y-102421801D01*
X136144059Y-102523913D01*
X136029719Y-102748315D01*
X135951897Y-102987830D01*
X135912500Y-103236571D01*
X129112999Y-103236571D01*
X129112999Y-102214628D01*
X129106591Y-102155017D01*
X129056296Y-102020169D01*
X129056295Y-102020168D01*
X129056293Y-102020164D01*
X128970047Y-101904955D01*
X128970044Y-101904952D01*
X128854835Y-101818706D01*
X128854828Y-101818702D01*
X128719982Y-101768408D01*
X128719983Y-101768408D01*
X128660383Y-101762001D01*
X128660381Y-101762000D01*
X128660373Y-101762000D01*
X128660364Y-101762000D01*
X126364629Y-101762000D01*
X126364623Y-101762001D01*
X126305016Y-101768408D01*
X126170171Y-101818702D01*
X126170164Y-101818706D01*
X126054955Y-101904952D01*
X126054952Y-101904955D01*
X125968706Y-102020164D01*
X125968702Y-102020171D01*
X125918408Y-102155017D01*
X125912001Y-102214616D01*
X125912001Y-102214623D01*
X125912000Y-102214635D01*
X107900500Y-102214635D01*
X107900500Y-101599982D01*
X145219500Y-101599982D01*
X145219500Y-103400017D01*
X145230000Y-103502796D01*
X145285185Y-103669332D01*
X145285186Y-103669335D01*
X145377288Y-103818656D01*
X145501344Y-103942712D01*
X145650665Y-104034814D01*
X145817202Y-104089999D01*
X145919990Y-104100500D01*
X145919995Y-104100500D01*
X147720005Y-104100500D01*
X147720010Y-104100500D01*
X147822798Y-104089999D01*
X147989335Y-104034814D01*
X148138656Y-103942712D01*
X148262712Y-103818656D01*
X148354814Y-103669335D01*
X148409999Y-103502798D01*
X148420500Y-103400010D01*
X148420500Y-102374071D01*
X155380000Y-102374071D01*
X155380000Y-102625928D01*
X155419397Y-102874669D01*
X155497219Y-103114184D01*
X155611557Y-103338583D01*
X155685748Y-103440697D01*
X155685748Y-103440698D01*
X156456212Y-102670234D01*
X156467482Y-102712292D01*
X156539890Y-102837708D01*
X156642292Y-102940110D01*
X156767708Y-103012518D01*
X156809765Y-103023787D01*
X156039300Y-103794250D01*
X156141416Y-103868442D01*
X156365815Y-103982780D01*
X156605330Y-104060602D01*
X156854072Y-104100000D01*
X157105928Y-104100000D01*
X157354669Y-104060602D01*
X157594184Y-103982780D01*
X157818575Y-103868446D01*
X157818581Y-103868442D01*
X157920697Y-103794250D01*
X157920698Y-103794250D01*
X157150234Y-103023787D01*
X157192292Y-103012518D01*
X157317708Y-102940110D01*
X157420110Y-102837708D01*
X157492518Y-102712292D01*
X157503787Y-102670235D01*
X158274250Y-103440698D01*
X158274250Y-103440697D01*
X158348442Y-103338581D01*
X158348446Y-103338575D01*
X158462780Y-103114184D01*
X158540602Y-102874669D01*
X158580000Y-102625928D01*
X158580000Y-102374071D01*
X158540602Y-102125330D01*
X158462780Y-101885815D01*
X158348442Y-101661416D01*
X158274250Y-101559301D01*
X158274250Y-101559300D01*
X157503787Y-102329764D01*
X157492518Y-102287708D01*
X157420110Y-102162292D01*
X157317708Y-102059890D01*
X157192292Y-101987482D01*
X157150232Y-101976212D01*
X157920698Y-101205748D01*
X157818583Y-101131557D01*
X157594184Y-101017219D01*
X157354669Y-100939397D01*
X157105928Y-100900000D01*
X156854072Y-100900000D01*
X156605330Y-100939397D01*
X156365815Y-101017219D01*
X156141413Y-101131559D01*
X156039301Y-101205747D01*
X156039300Y-101205748D01*
X156809765Y-101976212D01*
X156767708Y-101987482D01*
X156642292Y-102059890D01*
X156539890Y-102162292D01*
X156467482Y-102287708D01*
X156456212Y-102329765D01*
X155685748Y-101559300D01*
X155685747Y-101559301D01*
X155611559Y-101661413D01*
X155497219Y-101885815D01*
X155419397Y-102125330D01*
X155380000Y-102374071D01*
X148420500Y-102374071D01*
X148420500Y-101599990D01*
X148409999Y-101497202D01*
X148354814Y-101330665D01*
X148262712Y-101181344D01*
X148138656Y-101057288D01*
X147989335Y-100965186D01*
X147822798Y-100910001D01*
X147822796Y-100910000D01*
X147720017Y-100899500D01*
X147720010Y-100899500D01*
X145919990Y-100899500D01*
X145919982Y-100899500D01*
X145817203Y-100910000D01*
X145817202Y-100910001D01*
X145734669Y-100937349D01*
X145650667Y-100965185D01*
X145650662Y-100965187D01*
X145501342Y-101057289D01*
X145377289Y-101181342D01*
X145285187Y-101330662D01*
X145285186Y-101330665D01*
X145230001Y-101497202D01*
X145230001Y-101497203D01*
X145230000Y-101497203D01*
X145219500Y-101599982D01*
X107900500Y-101599982D01*
X107900500Y-92824500D01*
X107920185Y-92757461D01*
X107972989Y-92711706D01*
X108024500Y-92700500D01*
X169302289Y-92700500D01*
X169369328Y-92720185D01*
G37*
%TD.AperFunction*%
%TD*%
M02*
